<?xml version="1.0" standalone="no"?>
<!DOCTYPE svg PUBLIC "-//W3C//DTD SVG 20010904//EN"
 "http://www.w3.org/TR/2001/REC-SVG-20010904/DTD/svg10.dtd">
<svg version="1.0" xmlns="http://www.w3.org/2000/svg"
 width="1024.000000pt" height="1024.000000pt" viewBox="0 0 1024.000000 1024.000000"
 preserveAspectRatio="xMidYMid meet">
<metadata>
Created by potrace 1.16, written by Peter Selinger 2001-2019
</metadata>
<g transform="translate(0.000000,1024.000000) scale(0.100000,-0.100000)"
fill="#000000" stroke="none">
<path d="M7860 8929 c-193 -72 -275 -106 -470 -196 -235 -107 -684 -345 -954
-506 l-168 -101 -57 13 c-147 32 -191 40 -256 44 -68 4 -119 -4 -99 -15 5 -3
29 -11 54 -18 105 -27 274 -83 262 -88 -7 -2 -41 1 -75 7 -34 7 -93 14 -132
16 -144 8 -272 25 -345 44 -257 68 -741 81 -1060 30 -149 -24 -422 -87 -483
-111 -46 -18 -23 -20 41 -4 80 21 123 20 62 -1 -25 -9 -49 -22 -55 -29 -5 -7
-21 -15 -35 -16 -36 -5 -160 -50 -156 -57 2 -3 -8 -7 -22 -8 -15 0 -28 -6 -30
-11 -1 -5 -12 -8 -23 -5 -10 3 -25 1 -32 -4 -6 -5 -39 -18 -72 -28 -33 -10
-80 -27 -105 -37 -25 -11 -66 -23 -92 -28 -25 -5 -66 -18 -90 -29 -52 -24
-150 -61 -161 -61 -18 0 5 18 30 25 15 3 30 10 33 14 5 8 143 85 305 171 55
29 116 63 135 75 19 12 50 27 68 35 24 9 30 15 20 21 -11 7 -10 11 2 20 23 16
-41 2 -147 -32 l-91 -30 -154 83 c-340 185 -661 319 -1088 457 -205 66 -290
91 -307 91 -7 0 -21 4 -31 10 -15 8 -158 42 -247 58 -55 9 -98 7 -102 -5 -3
-9 8 -13 34 -13 21 -1 56 -7 77 -15 22 -8 43 -12 47 -10 4 3 20 -2 35 -10 16
-8 37 -12 47 -9 9 3 17 0 17 -6 0 -6 5 -8 11 -4 6 3 14 2 18 -4 3 -6 27 -13
53 -16 25 -3 59 -11 75 -17 15 -6 29 -10 30 -10 2 0 8 -1 15 -3 7 -2 38 -9 68
-16 30 -7 64 -19 75 -26 11 -8 27 -14 37 -14 10 0 18 -4 18 -9 0 -10 -61 3
-97 21 -31 15 -50 0 -23 -19 12 -8 24 -13 26 -10 3 3 16 -6 30 -20 15 -15 32
-23 44 -20 12 3 17 0 14 -7 -3 -7 18 -25 46 -40 29 -16 82 -48 118 -73 37 -25
76 -49 87 -54 11 -5 54 -32 95 -59 41 -27 92 -59 113 -70 20 -11 37 -25 37
-30 0 -6 8 -10 18 -10 9 0 33 -14 52 -30 l35 -29 -31 8 c-17 5 -92 38 -168 75
-75 36 -140 66 -145 66 -4 0 -34 13 -67 29 -32 15 -84 39 -114 52 -30 13 -93
46 -140 73 -47 27 -110 62 -140 78 -87 48 -145 81 -150 89 -3 3 -23 16 -46 27
-22 11 -46 27 -53 36 -13 16 -45 11 -35 -6 4 -6 -2 -6 -14 1 -11 6 -23 16 -25
23 -3 7 -6 -2 -6 -19 -1 -18 -6 -33 -12 -33 -22 0 10 -26 71 -58 33 -18 60
-30 60 -27 0 3 8 -2 18 -11 22 -21 215 -144 225 -144 4 0 7 -8 6 -17 0 -11 -3
-13 -6 -5 -2 7 -14 17 -25 23 -20 11 -21 9 -15 -20 5 -23 3 -30 -5 -25 -7 5
-9 2 -6 -8 4 -8 2 -21 -3 -29 -6 -10 -9 -11 -9 -1 0 8 -8 10 -23 7 -15 -4 -28
-1 -36 9 -8 9 -20 16 -27 16 -8 0 -14 3 -14 8 0 4 -17 18 -38 32 -37 24 -174
129 -202 154 -8 7 -34 25 -56 39 -23 14 -50 38 -61 53 -15 20 -29 27 -57 28
-29 1 -35 -2 -30 -14 16 -36 14 -74 -10 -220 -73 -442 -92 -950 -50 -1390 25
-261 59 -459 124 -720 l22 -85 -36 -60 c-41 -69 -49 -107 -25 -113 10 -2 25
10 38 31 28 45 47 53 55 22 4 -16 -6 -44 -34 -93 -63 -109 -49 -139 27 -54 48
53 55 42 22 -35 -50 -118 -111 -336 -148 -533 -92 -488 -112 -717 -75 -876 30
-131 30 -122 -7 -128 -19 -4 -108 -17 -199 -30 -283 -42 -537 -114 -752 -214
-93 -43 -188 -104 -172 -109 6 -2 55 12 110 31 235 81 347 112 569 160 98 21
357 55 438 57 l68 2 35 -83 c18 -46 52 -114 74 -151 22 -37 40 -72 40 -78 0
-10 -9 -13 -160 -51 -268 -68 -548 -195 -737 -334 -128 -94 -273 -250 -273
-293 0 -21 12 -16 55 22 146 129 342 268 480 341 149 79 398 172 582 219 34 8
69 18 77 21 9 3 38 -27 84 -88 39 -51 102 -124 141 -163 39 -38 71 -73 71 -77
0 -4 -21 -19 -47 -34 -358 -204 -653 -518 -776 -829 -53 -134 -69 -201 -70
-284 -1 -87 13 -124 46 -119 19 3 21 10 23 83 5 156 97 390 225 568 77 108
239 280 342 362 97 78 293 205 317 205 9 0 27 -12 41 -26 25 -27 170 -127 309
-214 210 -132 777 -395 990 -461 41 -12 79 -26 83 -29 4 -4 -26 -5 -68 -2 -65
4 -75 2 -75 -12 0 -18 90 -66 123 -66 25 0 30 -22 18 -82 -22 -108 -80 -558
-91 -708 -6 -85 -12 -156 -14 -157 -1 -2 -113 -6 -247 -9 -786 -18 -1747 -77
-1869 -116 -34 -11 -34 -11 -10 -20 33 -13 227 -13 775 1 708 16 1222 22 1200
11 -11 -5 -47 -9 -80 -9 -33 -1 -199 -10 -370 -21 -170 -11 -465 -29 -655 -40
-362 -21 -529 -35 -538 -44 -3 -4 -2 -9 2 -14 4 -4 436 -6 959 -5 762 2 1003
6 1207 19 207 14 458 17 1340 19 597 2 1175 -1 1285 -5 110 -4 407 -15 660
-24 253 -9 586 -21 740 -26 320 -11 701 -12 729 -1 52 20 -425 54 -1068 76
-241 8 -440 16 -443 18 -2 3 304 7 679 11 1078 10 1264 16 1300 45 11 10 18
23 14 29 -20 32 -82 35 -739 39 l-659 5 -10 29 c-13 37 -28 37 -28 0 l0 -28
-86 -1 c-101 0 -89 -14 -134 169 -17 69 -48 179 -71 244 -22 65 -38 126 -36
134 5 22 27 -33 103 -254 79 -230 103 -275 144 -275 18 0 42 11 64 30 l34 30
-14 63 c-34 149 -104 363 -171 522 -14 33 -32 76 -40 95 -8 19 -20 46 -27 60
-8 14 -30 64 -50 113 -33 80 -128 270 -187 374 l-24 42 29 30 c31 33 30 34
-21 31 -18 -1 -33 2 -33 6 0 4 12 26 26 48 19 31 61 64 158 128 158 103 274
190 421 314 127 106 304 277 361 347 l39 48 90 -37 c161 -68 417 -201 525
-272 178 -119 274 -218 358 -373 51 -93 82 -180 82 -231 0 -21 7 -55 15 -74
12 -30 19 -35 42 -32 25 3 28 7 31 44 11 157 -144 443 -326 599 -169 146 -327
234 -629 350 -84 33 -153 62 -153 66 0 3 22 34 48 67 27 33 68 90 92 127 l44
68 81 -7 c332 -27 635 -78 883 -148 131 -36 275 -73 321 -82 34 -6 34 -6 16
14 -40 45 -258 132 -463 185 -143 37 -357 72 -585 96 -111 11 -203 22 -205 24
-2 2 9 23 26 47 37 55 96 171 124 246 11 31 25 62 30 69 5 6 60 14 136 18 70
4 136 8 147 10 11 2 206 4 434 4 228 1 412 3 409 6 -11 12 -210 44 -341 56
-97 8 -232 10 -448 6 -170 -4 -309 -5 -309 -3 0 2 5 28 10 57 24 125 28 223
15 334 -32 254 -98 500 -228 857 -20 53 -75 174 -122 268 -47 95 -84 174 -82
176 2 3 48 -54 101 -125 119 -161 160 -191 136 -100 -17 63 -71 163 -136 249
-47 62 -54 77 -45 92 12 20 37 230 51 423 9 127 6 712 -4 780 -3 22 -8 69 -10
105 -2 36 -6 76 -9 90 -3 14 -8 61 -12 105 -3 44 -8 94 -10 110 -3 17 -7 48
-9 70 -12 113 -71 417 -86 446 -6 10 -9 22 -8 26 3 16 -14 62 -27 73 -17 14
-55 -3 -55 -24 0 -14 -90 -96 -105 -96 -4 0 -27 -17 -53 -37 -25 -21 -42 -31
-37 -23 4 8 -49 -41 -119 -109 -130 -127 -186 -160 -80 -49 32 35 61 65 64 68
28 28 80 92 80 100 0 18 -46 10 -91 -15 -46 -26 -156 -80 -224 -110 -22 -10
-58 -27 -79 -37 -32 -16 -38 -17 -33 -5 4 11 -2 17 -21 19 -28 4 -228 -88
-267 -123 -11 -9 -47 -31 -80 -49 -33 -17 -87 -49 -120 -70 -33 -22 -76 -49
-95 -60 -19 -11 -45 -27 -57 -36 -13 -9 -23 -13 -23 -8 0 5 20 21 43 36 59 38
325 231 365 265 19 15 39 30 45 32 7 2 20 10 30 19 9 8 17 11 17 6 0 -5 4 -4
8 1 11 16 95 68 110 68 7 0 23 10 36 22 12 11 28 19 34 17 6 -2 19 6 28 16 9
11 23 18 30 15 8 -3 14 0 14 6 0 6 6 11 14 11 17 0 89 40 94 52 2 4 12 8 22 8
11 0 23 6 27 13 4 6 15 12 23 12 9 0 14 7 12 19 -3 17 -2 18 12 7 14 -12 19
-11 34 3 10 9 24 16 30 16 7 0 20 4 30 9 9 5 35 17 57 26 75 32 160 74 190 95
30 20 30 20 5 19 -14 0 -72 -18 -130 -40z m191 -466 c3 -91 9 -180 14 -208 3
-16 8 -77 11 -135 3 -58 9 -140 13 -182 8 -84 6 -434 -3 -539 -19 -221 -60
-556 -70 -566 -2 -2 -34 31 -72 74 -130 147 -276 298 -372 385 -86 78 -114
116 -89 119 5 1 53 -24 108 -56 55 -31 103 -54 107 -51 8 9 -85 97 -145 138
-48 32 -49 34 -41 66 10 38 18 37 103 -5 66 -33 155 -64 155 -54 0 5 -27 28
-60 52 -33 24 -60 44 -60 45 0 1 20 -1 45 -4 85 -9 35 32 -90 75 -45 15 -47
17 -29 30 10 8 30 12 44 10 14 -3 75 -12 135 -21 61 -9 122 -18 138 -21 37 -6
34 7 -5 27 -71 36 -168 78 -181 78 -8 0 -30 7 -48 15 l-34 14 35 0 c19 0 56
-4 83 -8 26 -4 47 -4 47 0 0 5 11 4 25 -1 14 -5 25 -6 25 -1 0 10 -49 29 -134
53 -49 13 -74 38 -39 38 14 0 15 2 4 9 -11 7 -7 22 19 77 52 108 131 247 149
261 9 7 12 13 8 13 -5 0 5 18 22 39 17 21 31 44 31 50 0 6 5 11 11 11 6 0 8 7
5 16 -3 8 -2 13 3 10 5 -3 22 18 37 47 66 122 75 137 84 137 6 0 10 -17 11
-37z m-6187 -326 c42 -54 77 -103 79 -110 1 -6 21 -30 45 -53 23 -23 42 -45
42 -51 0 -5 11 -20 25 -33 13 -12 22 -27 19 -31 -3 -5 2 -9 10 -9 8 0 21 -11
28 -24 7 -14 46 -67 86 -120 39 -52 72 -99 72 -104 0 -5 -22 -14 -50 -20 -57
-13 -200 -79 -200 -92 0 -4 6 -10 12 -12 15 -5 123 31 198 66 30 14 60 26 65
26 8 0 36 -38 53 -72 2 -3 -14 -11 -35 -18 -58 -17 -71 -23 -166 -69 -92 -45
-151 -87 -142 -101 7 -11 34 -4 139 37 163 63 248 86 257 71 14 -22 10 -40
-11 -45 -40 -11 -159 -72 -229 -118 -63 -41 -131 -107 -131 -126 0 -4 62 26
138 66 205 109 302 144 302 107 0 -4 -26 -23 -57 -42 -89 -52 -184 -131 -231
-192 -23 -30 -42 -58 -42 -62 0 -4 30 19 68 51 76 66 153 119 229 157 63 31
60 31 73 7 8 -16 0 -30 -58 -88 -77 -79 -134 -143 -177 -198 -16 -21 -35 -43
-40 -49 -24 -25 -157 -199 -240 -314 -48 -67 -89 -121 -91 -120 -8 9 -103 312
-110 353 -2 17 -11 55 -19 85 -7 30 -19 77 -26 103 -6 26 -13 55 -14 65 0 9
-4 33 -8 52 -13 66 -17 95 -24 157 -3 34 -9 61 -12 59 -4 -3 -5 13 -3 35 2 21
0 39 -5 39 -4 0 -7 48 -6 108 1 59 3 186 3 282 0 96 6 222 12 280 13 116 15
146 17 204 l1 40 39 -40 c21 -21 73 -83 115 -137z m3816 -86 c182 -23 504
-103 675 -168 108 -41 352 -150 425 -190 89 -49 259 -152 290 -175 14 -11 60
-45 102 -77 276 -206 634 -572 767 -784 41 -67 145 -273 187 -372 80 -187 175
-562 174 -684 -1 -30 -7 -19 -40 69 -22 58 -42 119 -46 135 -9 41 -86 276 -89
273 -2 -2 7 -84 20 -183 12 -99 26 -209 30 -245 3 -36 11 -103 16 -150 13
-124 9 -171 -6 -80 -7 41 -15 86 -18 100 -107 556 -183 774 -361 1035 -78 114
-268 306 -370 375 -210 140 -516 240 -736 240 -216 0 -533 -97 -676 -206 -128
-97 -285 -334 -342 -514 -33 -104 -40 -136 -63 -295 -55 -377 -8 -733 139
-1057 68 -150 192 -304 296 -366 59 -36 98 -40 57 -6 -31 26 -145 143 -169
174 -11 14 -36 52 -58 85 l-38 60 50 -44 c104 -92 254 -163 425 -202 132 -30
343 -23 474 15 120 35 315 132 402 200 216 169 353 476 353 791 0 330 -102
579 -329 805 -105 105 -196 174 -305 232 -81 43 -74 46 40 18 94 -22 216 -69
294 -112 132 -74 283 -214 357 -331 14 -23 43 -69 65 -101 21 -33 38 -68 38
-78 0 -10 5 -18 10 -18 6 0 10 -6 10 -13 0 -8 15 -49 34 -93 42 -97 69 -197
90 -329 20 -123 20 -202 1 -325 -66 -433 -326 -692 -825 -823 -125 -33 -195
-39 -375 -35 -166 5 -350 29 -365 48 -3 4 -21 10 -40 13 -34 7 -34 6 15 -23
28 -16 53 -30 56 -30 4 0 36 -17 70 -39 179 -108 374 -121 690 -45 345 82 526
191 705 428 169 223 242 600 184 955 -11 68 -19 126 -17 128 3 2 22 -40 45
-94 64 -156 94 -306 106 -530 3 -50 8 -104 11 -120 5 -25 4 -25 -4 -6 -6 12
-17 71 -26 130 -9 59 -18 115 -20 123 -2 8 -7 34 -10 58 -12 87 -24 91 -24 7
-1 -129 -21 -308 -37 -332 -8 -12 -14 -30 -14 -39 0 -9 -7 -28 -15 -42 -7 -15
-21 -54 -30 -86 -26 -92 -124 -269 -195 -351 -36 -42 -33 -49 7 -17 72 56 170
187 207 275 8 20 19 37 23 37 10 0 63 -81 86 -131 18 -39 47 -144 47 -169 0
-13 -32 -26 -131 -55 -128 -37 -227 -78 -241 -99 -4 -6 -10 -7 -14 -3 -4 4
-12 3 -18 -3 -7 -5 -25 -11 -41 -14 -35 -7 -136 -55 -116 -56 8 0 46 11 85 24
66 22 88 28 156 41 227 44 335 63 341 60 11 -7 9 -137 -4 -210 l-12 -70 -205
-6 c-113 -3 -215 -2 -227 2 -42 16 -71 -14 -40 -39 16 -14 51 -18 242 -33 190
-14 191 -14 187 -30 -8 -31 -115 -179 -130 -180 -22 -2 -13 -2 -110 11 -100
13 -261 15 -273 3 -9 -9 37 -22 239 -69 41 -9 76 -23 79 -31 7 -17 -187 -209
-291 -288 -22 -17 -71 -54 -110 -84 -136 -103 -352 -240 -461 -291 -183 -86
-226 -106 -325 -150 -52 -23 -120 -53 -150 -67 -152 -69 -364 -137 -650 -209
-59 -15 -370 -69 -460 -80 -30 -3 -64 -8 -75 -10 -153 -29 -810 -29 -1050 0
-656 78 -1241 263 -1695 535 -87 52 -127 79 -234 155 -43 30 -76 59 -76 65 0
9 136 68 328 142 96 37 76 60 -37 41 -91 -15 -93 -16 -206 -57 -55 -20 -115
-42 -134 -48 l-34 -11 -71 76 c-61 66 -137 182 -125 192 2 2 101 22 219 46
276 55 334 79 285 120 -11 9 -25 7 -67 -13 -38 -18 -79 -27 -143 -32 -101 -7
-128 -10 -233 -26 -40 -6 -80 -8 -88 -5 -9 3 -14 20 -14 45 0 22 -5 43 -10 46
-6 4 -9 37 -6 83 l5 77 118 -2 c65 -1 183 -11 262 -23 79 -11 145 -19 148 -16
6 6 -55 50 -102 73 -55 27 -110 41 -261 67 l-129 21 3 30 c5 55 76 202 125
259 l33 39 31 -49 c43 -70 123 -168 174 -213 61 -54 198 -141 220 -141 11 0
45 -13 75 -30 31 -16 60 -27 65 -24 5 3 -17 19 -48 36 -107 56 -240 158 -305
234 -27 32 -22 29 26 -14 165 -149 368 -240 611 -277 127 -19 339 -19 428 0
69 14 158 56 180 84 10 13 10 14 -3 5 -21 -15 -121 -41 -215 -54 -187 -28
-446 25 -669 137 -366 183 -576 542 -576 983 0 346 185 723 460 941 67 53 186
128 215 135 14 3 28 10 31 15 3 5 13 9 22 9 9 0 28 6 42 13 31 16 60 27 60 23
0 -2 -27 -22 -59 -45 -76 -53 -155 -141 -186 -208 -25 -51 -32 -93 -17 -93 4
0 34 27 67 61 67 67 167 132 234 149 73 19 192 15 237 -9 51 -26 104 -77 104
-100 0 -27 11 -33 27 -13 14 16 14 16 8 -3 -3 -10 -3 -43 1 -72 6 -50 8 -53
36 -53 66 0 118 -49 118 -113 0 -57 -25 -96 -76 -119 -56 -24 -99 -13 -143 38
l-31 34 -107 -108 c-60 -60 -121 -116 -138 -124 -16 -9 -57 -30 -90 -47 -69
-36 -162 -53 -214 -39 -46 13 -96 68 -111 124 -11 38 -10 108 1 154 3 9 -2 14
-11 11 -8 -2 -20 -4 -26 -4 -18 -1 -81 -125 -104 -207 -55 -199 -24 -503 71
-693 103 -204 303 -396 494 -475 147 -61 294 -86 465 -79 257 10 453 97 633
280 69 69 76 75 58 41 -11 -21 -34 -59 -50 -84 -52 -76 -37 -93 29 -34 105 95
192 284 234 511 83 445 -8 921 -232 1219 -167 220 -428 384 -697 436 -95 18
-299 15 -408 -6 -213 -41 -414 -127 -570 -244 -254 -191 -430 -451 -555 -819
-41 -119 -48 -153 -73 -341 -15 -113 -21 -214 -21 -362 l0 -205 -14 115 c-8
63 -17 225 -20 359 -4 134 -10 237 -14 230 -10 -18 -57 -479 -52 -501 1 -5 -2
-8 -7 -8 -9 0 -21 81 -21 147 0 44 -14 64 -24 37 -4 -9 -9 -58 -13 -108 -10
-148 -25 -138 -19 12 10 215 68 474 157 697 22 55 45 117 50 139 14 55 39 109
135 287 46 85 84 159 84 164 0 5 -13 -4 -30 -20 -16 -15 -27 -32 -24 -36 3 -5
-2 -6 -10 -3 -21 8 -20 17 5 67 64 126 262 389 409 541 302 313 684 574 1123
766 53 24 97 47 97 52 0 5 9 7 19 3 14 -4 25 1 37 19 9 14 20 24 24 21 5 -3
21 0 37 7 15 6 37 12 48 14 10 1 21 6 23 12 2 6 9 9 17 6 7 -3 24 0 37 7 13 7
27 12 31 11 4 -1 16 5 25 14 10 11 17 13 20 5 2 -7 9 -6 19 5 9 8 21 13 29 10
7 -3 18 2 24 9 7 8 16 12 21 9 5 -3 15 -2 22 3 6 4 19 8 27 8 16 1 112 17 241
40 65 12 354 47 489 59 87 7 706 -3 790 -13z m554 -1495 c74 -43 96 -78 96
-149 0 -168 -49 -289 -164 -403 -86 -85 -164 -132 -245 -145 -74 -12 -116 3
-154 53 -39 51 -57 112 -57 192 0 125 52 250 146 355 109 122 267 162 378 97z
m307 -209 c70 -47 78 -110 20 -168 -45 -45 -78 -50 -129 -19 -49 30 -68 104
-41 162 22 49 96 61 150 25z m-4555 -954 c-2 -82 1 -224 6 -317 8 -153 6 -208
-8 -194 -10 11 -21 128 -28 291 -4 85 20 367 30 367 2 0 2 -66 0 -147z m4614
-2703 c0 -3 -17 -14 -37 -25 -55 -28 -113 -75 -113 -90 0 -9 11 -12 33 -11 36
3 67 17 114 52 l32 24 12 -22 c23 -43 78 -64 94 -38 4 6 16 8 26 5 25 -8 69
20 69 43 0 14 7 17 33 14 37 -4 67 17 67 47 0 10 8 17 19 17 21 0 18 -34 -6
-53 -8 -6 -16 -28 -19 -49 -3 -21 -12 -50 -22 -63 -9 -13 -27 -40 -39 -60 -12
-20 -26 -35 -31 -34 -12 3 -58 -56 -72 -91 -12 -34 -26 -33 -35 1 -5 20 -9 23
-15 13 -4 -7 -5 -23 0 -35 11 -29 -35 -92 -55 -75 -10 8 -15 6 -20 -12 -4 -13
-19 -38 -33 -57 -28 -37 -29 -26 20 -141 37 -89 97 -183 130 -207 36 -25 49
-20 109 42 44 46 49 44 74 -35 10 -30 29 -78 41 -107 13 -28 24 -57 24 -63 0
-12 -726 -12 -1050 1 -102 3 -324 9 -495 13 -170 3 -409 8 -530 11 -189 5
-827 13 -1052 15 l-73 0 0 73 c0 73 7 117 19 117 3 0 17 -24 31 -53 20 -42 31
-53 53 -55 23 -3 27 0 27 21 0 39 11 39 56 -3 71 -65 84 -49 113 131 33 212
33 198 5 205 -35 9 -51 -1 -59 -35 -9 -44 -24 -38 -18 7 2 20 -2 55 -9 77 -13
38 -15 40 -52 38 -36 -1 -38 0 -33 25 7 36 -11 69 -44 81 -25 8 -29 15 -29 46
0 31 2 34 18 27 108 -56 242 -100 417 -135 262 -54 336 -62 600 -62 245 0 278
4 403 48 50 17 39 31 -20 22 -88 -12 -108 -14 -253 -16 -123 -2 -221 4 -320
17 -16 2 -55 7 -85 10 -82 8 -183 33 -192 47 -5 8 -8 8 -8 1 0 -11 -44 -3
-175 33 -143 39 -339 113 -317 121 6 2 26 -4 44 -12 57 -27 310 -106 338 -106
15 0 30 -3 33 -7 4 -3 22 -8 39 -9 18 -2 69 -8 113 -14 44 -6 90 -12 103 -13
12 -1 22 -7 22 -14 0 -7 5 -13 11 -13 5 0 7 5 4 11 -5 7 20 8 82 2 90 -8 391
-10 473 -3 25 2 51 8 58 13 6 5 12 7 12 4 0 -10 114 31 118 43 4 10 -7 11 -44
7 -190 -25 -543 -27 -654 -3 -62 13 -57 13 104 8 283 -9 610 27 654 72 27 27
5 30 -106 13 -156 -24 -323 -33 -524 -28 -58 1 -83 15 -30 17 324 9 723 75
709 118 -2 7 -23 10 -53 8 -88 -5 -25 14 88 27 101 11 339 54 423 77 43 11
-17 -18 -64 -32 -108 -31 -335 -115 -342 -126 -10 -16 -9 -17 27 -19 46 -3
121 11 237 42 60 16 116 31 125 33 10 1 50 13 90 25 40 13 75 21 77 19 5 -5
-270 -108 -289 -108 -9 0 -35 -11 -58 -24 -24 -13 -55 -26 -70 -30 -30 -7 -37
-23 -14 -32 15 -6 142 23 266 62 90 28 96 30 177 63 28 12 55 21 59 21 16 0
-52 -50 -100 -73 -55 -27 -285 -114 -378 -143 -59 -18 -71 -30 -41 -41 40 -15
318 53 498 122 156 60 381 187 424 239 11 13 16 14 22 4 5 -7 9 -15 9 -18z
m589 -541 c20 -33 58 -137 116 -317 l53 -163 -151 3 c-134 3 -150 5 -153 20
-1 10 -15 53 -32 95 -16 43 -35 102 -43 131 -11 46 -11 55 1 62 8 6 18 10 21
10 8 0 29 -49 77 -179 21 -58 43 -106 48 -108 5 -2 18 3 29 10 17 13 17 18 5
63 -7 27 -19 63 -26 79 -56 132 -70 197 -43 203 19 3 28 -15 85 -177 24 -68
49 -130 55 -137 16 -19 45 -18 53 2 3 9 -23 103 -59 209 -36 106 -65 198 -65
204 0 18 14 13 29 -10z"/>
<path d="M2410 7168 c-94 -54 -220 -200 -235 -273 l-7 -30 38 40 c102 109 137
146 207 212 66 63 80 83 58 83 -3 0 -31 -14 -61 -32z"/>
<path d="M5241 7981 c-10 -6 -11 -20 -6 -51 23 -135 66 -192 119 -157 22 15
26 24 26 69 0 71 -31 135 -71 143 -19 4 -36 2 -46 -7 -12 -9 -15 -9 -9 0 8 14
6 15 -13 3z"/>
<path d="M4437 7922 c-24 -27 -20 -79 11 -141 33 -67 51 -80 86 -61 21 11 26
21 26 52 0 59 -62 168 -95 168 -7 0 -19 -8 -28 -18z"/>
<path d="M4893 7913 c-40 -4 -63 -23 -28 -23 12 0 13 -4 7 -17 -7 -12 -2 -49
13 -111 26 -106 53 -164 75 -159 21 4 14 115 -10 179 -10 27 -16 48 -13 48 7
0 50 -102 57 -137 8 -36 30 -58 46 -48 15 9 7 116 -14 175 -9 25 -16 53 -16
62 0 20 -30 39 -57 36 -10 -1 -37 -3 -60 -5z"/>
<path d="M5962 7679 c-96 -19 -210 -107 -257 -198 -30 -60 -32 -102 -6 -125
24 -22 42 -13 81 41 32 44 141 133 163 133 6 0 -19 -29 -57 -63 -52 -49 -67
-69 -64 -87 6 -45 30 -46 102 -2 37 22 90 46 119 53 82 21 306 18 400 -5 128
-31 124 -4 -19 115 -102 85 -161 113 -278 134 -97 16 -120 17 -184 4z"/>
<path d="M3780 7541 c-150 -33 -312 -110 -403 -192 -77 -69 -131 -183 -97
-204 6 -4 48 11 93 34 108 53 180 71 307 78 128 7 236 -9 309 -44 52 -25 55
-25 68 -8 18 25 17 31 -13 84 l-25 46 33 -36 c44 -48 73 -63 97 -50 33 18 34
42 2 104 -32 61 -18 61 20 1 23 -38 48 -43 72 -16 48 53 -17 137 -146 189 -83
34 -201 39 -317 14z"/>
<path d="M5015 4830 c-27 -6 -63 -14 -80 -20 l-30 -10 34 4 c19 2 50 0 68 -4
19 -5 30 -4 27 1 -3 5 0 9 5 9 6 0 11 -4 11 -10 0 -5 12 -10 26 -10 14 0 23 4
19 10 -10 16 15 12 31 -5 9 -8 26 -15 40 -15 30 0 32 -20 2 -21 -41 -3 -64 -6
-114 -17 -27 -6 -80 -14 -118 -17 -39 -4 -86 -13 -105 -22 -20 -9 -46 -15 -58
-14 -12 0 -25 -4 -28 -9 -10 -17 -25 -11 -18 8 3 9 -16 -4 -42 -30 -39 -37
-48 -53 -47 -79 2 -59 119 -156 281 -232 47 -22 88 -41 90 -43 2 -2 -10 -33
-28 -68 -54 -111 -176 -202 -300 -226 -94 -18 -256 19 -350 79 -85 55 -158
153 -146 198 3 13 1 23 -5 23 -5 0 -9 5 -7 12 9 46 -132 -34 -182 -102 -26
-36 -28 -45 -19 -71 15 -44 56 -40 101 11 l35 41 22 -43 c43 -87 151 -178 258
-218 66 -25 234 -43 317 -34 159 17 321 113 374 221 l24 48 51 -48 c94 -87
258 -147 404 -147 167 0 302 50 403 150 52 52 116 148 124 187 13 67 17 74 39
66 11 -4 48 -8 81 -8 71 0 79 16 27 51 -43 29 -175 84 -220 91 -33 6 -35 5
-30 -21 11 -55 -33 -187 -85 -258 -30 -41 -113 -94 -181 -118 -104 -35 -264
-22 -368 31 -44 22 -168 136 -168 154 0 6 9 16 20 21 28 12 160 133 243 221
59 63 67 77 67 111 0 46 -19 67 -105 111 -109 56 -276 82 -390 61z m161 -137
c16 -12 22 -36 13 -54 -5 -9 -34 -26 -66 -38 -32 -13 -65 -26 -73 -30 -16 -9
-29 -8 -103 4 -56 9 -101 42 -92 66 6 15 38 29 115 47 45 11 192 14 206 5z"/>
<path d="M6488 2075 c-8 -19 -8 -39 1 -81 20 -87 74 -226 93 -238 22 -13 72
13 76 41 4 26 -72 218 -104 264 -31 45 -50 49 -66 14z"/>
<path d="M4168 2048 c-9 -15 -13 -62 -13 -140 0 -124 6 -143 50 -150 19 -3 20
3 20 152 0 152 0 155 -22 158 -14 2 -26 -5 -35 -20z"/>
<path d="M6353 1979 c18 -168 70 -280 112 -238 14 14 13 22 -6 85 -25 83 -74
188 -96 206 -15 12 -16 7 -10 -53z"/>
<path d="M7933 2120 c-22 -9 -98 -128 -121 -190 -33 -86 -36 -109 -17 -130 35
-39 66 -26 122 48 85 113 133 188 133 209 0 42 -72 82 -117 63z"/>
<path d="M2094 2029 c-23 -12 -54 -59 -54 -82 0 -19 83 -86 172 -139 56 -33
82 -42 147 -49 100 -11 131 -2 131 40 0 25 -12 40 -71 88 -96 78 -144 109
-207 133 -58 22 -86 24 -118 9z"/>
<path d="M2852 1955 c-34 -15 -58 -57 -45 -80 13 -23 100 -85 156 -110 65 -31
113 -33 122 -5 11 34 -4 57 -75 117 -102 86 -118 94 -158 78z"/>
<path d="M8120 1936 c-61 -45 -160 -142 -160 -156 0 -17 50 -60 78 -67 14 -3
36 -2 49 3 32 12 167 132 182 162 14 30 1 56 -39 77 -42 22 -59 19 -110 -19z"/>
</g>
</svg>
