<?xml version="1.0" standalone="no"?>
<!DOCTYPE svg PUBLIC "-//W3C//DTD SVG 20010904//EN"
 "http://www.w3.org/TR/2001/REC-SVG-20010904/DTD/svg10.dtd">
<svg version="1.0" xmlns="http://www.w3.org/2000/svg"
 width="1024.000000pt" height="1024.000000pt" viewBox="0 0 1024.000000 1024.000000"
 preserveAspectRatio="xMidYMid meet">
<metadata>
Created by potrace 1.16, written by Peter Selinger 2001-2019
</metadata>
<g transform="translate(0.000000,1024.000000) scale(0.100000,-0.100000)"
fill="#000000" stroke="none">
<path d="M6090 9728 c-48 -82 -119 -233 -145 -307 -13 -36 -31 -86 -40 -111
-9 -25 -18 -50 -20 -57 -3 -8 -16 -8 -52 3 -96 29 -261 63 -383 79 -176 23
-190 24 -330 35 -101 7 -127 6 -136 -5 -6 -9 -31 -13 -70 -13 -32 0 -75 0 -94
0 -19 -1 -37 4 -41 10 -4 7 -21 9 -43 5 -20 -3 -34 -2 -32 2 8 13 -45 34 -94
37 -25 2 -58 5 -75 7 -16 2 -97 -3 -178 -12 -85 -10 -154 -13 -163 -8 -12 7
-129 4 -129 -3 0 -3 -26 -7 -87 -14 -154 -17 -382 -73 -638 -155 -85 -28 -155
-49 -155 -48 -1 1 -16 52 -34 112 -33 112 -112 328 -134 368 -56 101 -62 -39
-8 -183 46 -121 88 -249 99 -297 16 -68 -10 -61 -62 17 -26 39 -59 76 -77 85
-31 16 -31 16 -24 -7 4 -13 21 -49 36 -80 16 -32 29 -62 29 -67 0 -10 -79 -51
-98 -51 -13 0 -85 32 -92 41 -3 4 -14 8 -24 10 -21 4 -35 29 -16 29 6 0 8 -4
5 -10 -3 -5 3 -10 14 -10 56 0 -6 44 -74 53 -37 5 -145 41 -239 81 -22 9 -41
14 -44 12 -2 -3 -16 1 -31 8 -14 8 -74 32 -134 54 -119 45 -191 60 -201 43
-11 -18 -25 -13 -54 19 -24 25 -32 28 -57 21 l-30 -8 28 -6 c15 -4 27 -12 27
-18 0 -7 -7 -8 -17 -4 -17 7 -67 18 -136 30 -20 4 -37 -2 -61 -20 -18 -14 -40
-23 -48 -20 -8 3 -21 -1 -28 -10 -8 -10 -9 -15 -1 -15 16 0 14 -25 -4 -40 -13
-10 -15 -9 -15 9 0 54 -53 1 -70 -69 -7 -30 -26 -84 -41 -119 -58 -128 -109
-317 -114 -421 -4 -80 -10 -118 -30 -201 -17 -71 -38 -210 -37 -249 1 -14 -5
-47 -13 -75 -8 -27 -14 -68 -13 -90 1 -73 -2 -93 -17 -109 -8 -8 -15 -21 -15
-30 0 -8 -20 -29 -45 -46 -48 -33 -94 -86 -99 -117 -2 -11 -15 -35 -28 -54
-47 -70 -140 -191 -173 -228 -45 -50 -145 -200 -145 -217 0 -8 10 -14 25 -14
18 0 35 15 67 58 53 70 67 86 74 79 8 -8 -33 -85 -75 -142 -20 -27 -54 -79
-75 -115 -20 -36 -60 -101 -87 -144 -37 -58 -49 -86 -44 -103 10 -43 40 -27
85 45 24 37 45 62 47 56 4 -11 -17 -99 -53 -224 -9 -30 -20 -78 -24 -106 -4
-28 -13 -61 -19 -73 -7 -12 -11 -27 -10 -34 1 -6 -8 -34 -20 -60 -13 -27 -30
-83 -38 -125 -11 -56 -24 -86 -44 -110 -16 -18 -29 -38 -29 -44 0 -5 14 -26
30 -45 17 -18 30 -45 30 -58 0 -26 14 -34 24 -12 3 6 4 0 1 -15 -3 -16 -1 -28
4 -28 5 0 12 -7 15 -15 4 -12 -7 -21 -42 -36 -57 -25 -82 -46 -82 -70 0 -21
28 -51 41 -44 17 11 9 -11 -11 -28 -21 -18 -25 -43 -11 -66 6 -9 20 -11 49 -6
39 6 41 5 44 -22 2 -22 -5 -36 -34 -64 -27 -26 -38 -44 -38 -65 0 -45 12 -57
44 -44 36 13 36 14 36 -16 0 -45 18 -66 49 -59 24 5 29 2 34 -17 4 -12 5 -23
4 -24 -1 -1 -40 -8 -87 -14 -46 -6 -93 -17 -105 -23 -11 -6 -30 -12 -41 -14
-12 -1 -39 -9 -60 -19 -22 -9 -45 -16 -52 -15 -8 1 -19 -2 -25 -8 -7 -5 -37
-19 -67 -30 -73 -28 -100 -40 -130 -57 -14 -7 -37 -19 -52 -25 -44 -18 -50
-69 -7 -69 19 0 245 70 309 96 19 8 79 25 134 39 54 14 107 30 117 35 10 6 24
10 32 10 18 0 27 -42 15 -65 -16 -27 -1 -60 34 -76 36 -16 51 -42 22 -38 -11
2 -34 -2 -51 -10 -55 -23 -38 -57 32 -63 l40 -3 -3 -44 -4 -44 34 7 c18 3 40
16 49 28 11 14 18 17 23 9 4 -6 2 -11 -3 -11 -16 0 -13 -30 4 -64 9 -16 14
-30 13 -31 -2 -2 -48 -28 -103 -60 -55 -31 -106 -62 -112 -67 -7 -6 -13 -7
-13 -4 0 4 -10 -3 -22 -14 -13 -12 -39 -30 -59 -40 -19 -10 -41 -26 -48 -34
-8 -9 -19 -16 -27 -16 -7 0 -23 -11 -36 -24 -13 -13 -46 -39 -74 -58 -60 -41
-184 -164 -184 -183 0 -3 11 -17 24 -31 28 -31 50 -24 86 29 13 19 65 63 116
98 52 35 124 86 161 112 38 27 86 58 108 69 22 11 49 28 60 38 11 10 43 30 70
46 28 15 58 33 68 40 17 11 27 2 98 -82 43 -52 79 -95 79 -97 0 -1 -17 -2 -37
-2 -31 0 -39 -4 -41 -22 -2 -12 6 -31 19 -44 18 -18 29 -20 68 -15 l46 6 97
-95 c54 -53 102 -105 108 -115 20 -37 -15 -22 -85 35 -37 30 -71 55 -75 55 -4
0 -12 -11 -18 -24 -14 -31 2 -53 74 -107 77 -56 264 -159 291 -159 17 0 24 8
31 32 l8 32 44 -43 c24 -23 61 -51 81 -61 31 -17 36 -23 34 -52 -4 -47 -16
-88 -26 -88 -5 0 -9 -12 -9 -26 0 -14 -11 -40 -25 -56 -14 -17 -35 -49 -47
-72 -11 -22 -30 -52 -43 -66 -37 -40 -113 -182 -120 -223 -3 -20 -10 -37 -14
-37 -5 0 -11 -10 -15 -23 -10 -40 -37 -99 -43 -94 -3 3 0 20 6 38 6 18 9 34 7
36 -15 15 -52 -31 -98 -124 -29 -60 -56 -110 -60 -111 -5 -2 -8 -10 -8 -17 0
-7 -14 -45 -30 -84 -17 -40 -28 -76 -25 -80 3 -5 -2 -41 -12 -80 -16 -68 -17
-70 -45 -64 -24 5 -29 1 -39 -23 -7 -20 -7 -34 0 -45 7 -13 5 -21 -10 -35 -10
-9 -19 -25 -19 -35 0 -10 -4 -21 -10 -24 -25 -15 -46 -211 -26 -244 4 -5 6
-30 6 -53 -2 -99 0 -235 3 -260 2 -15 15 -42 28 -59 13 -18 24 -40 24 -49 1
-10 7 -26 15 -36 14 -18 14 -18 -3 -5 -26 21 -31 7 -12 -34 22 -45 50 -65 91
-65 23 0 36 -7 48 -25 9 -14 21 -25 27 -25 6 0 24 -11 40 -24 23 -19 37 -24
63 -19 18 3 43 0 55 -6 15 -8 27 -9 41 -1 14 7 26 7 39 1 13 -7 24 -6 37 4 11
8 34 15 51 15 26 0 36 6 48 30 20 39 30 38 30 -2 0 -29 4 -33 27 -36 25 -3 28
0 28 29 0 60 11 22 20 -70 7 -63 17 -105 35 -139 13 -26 31 -80 40 -121 11
-53 22 -81 40 -97 28 -26 33 -54 9 -54 -13 0 -14 -9 -9 -57 4 -32 18 -91 31
-131 13 -40 24 -79 24 -87 0 -36 116 -360 146 -412 19 -31 37 -67 40 -80 8
-29 33 -43 59 -32 11 4 23 8 27 8 11 1 77 -105 109 -174 19 -42 44 -75 84
-109 31 -28 65 -62 76 -77 17 -25 17 -28 2 -40 -14 -12 -15 -11 -9 8 7 23 4
27 -36 37 -24 5 -30 2 -44 -25 -15 -30 -17 -31 -62 -24 -52 8 -55 8 -94 1 -32
-5 -32 -3 -17 27 9 18 9 20 -2 9 -20 -19 -37 -14 -41 11 -3 19 -9 22 -48 23
-25 0 -55 6 -67 12 -26 14 -73 16 -73 3 0 -10 -77 -22 -157 -25 -35 -1 -57 5
-83 21 -34 22 -70 30 -83 17 -4 -4 -23 -8 -43 -10 -21 -2 -40 -8 -44 -14 -4
-6 -20 -13 -36 -16 -16 -2 -43 -9 -61 -15 -17 -5 -69 -9 -115 -8 -46 1 -108
-2 -138 -6 l-55 -6 -31 58 c-18 32 -42 94 -54 138 -12 44 -26 91 -31 105 -5
14 -11 39 -14 55 -2 17 -9 48 -14 69 -5 22 -8 43 -5 47 2 4 0 10 -6 14 -5 3
-10 16 -10 29 0 12 -3 26 -7 30 -4 3 -8 14 -9 24 -1 9 -16 89 -33 177 -51 267
-68 316 -105 302 -28 -11 -25 -97 7 -292 9 -49 23 -142 32 -205 18 -126 81
-437 95 -476 16 -42 -4 -26 -45 38 -127 195 -200 299 -274 389 -25 31 -58 71
-73 90 -70 90 -288 288 -288 263 0 -4 -6 -2 -12 3 -7 5 -26 9 -43 9 -22 -1
-31 -6 -33 -21 -2 -16 6 -23 41 -33 77 -23 277 -241 438 -477 11 -16 52 -82
92 -145 40 -63 80 -126 89 -140 20 -28 15 -35 -27 -44 -26 -5 -34 -1 -58 31
-46 62 -197 213 -212 213 -18 0 -37 -34 -29 -54 3 -8 14 -18 23 -21 23 -7 151
-152 151 -171 0 -8 -4 -14 -9 -14 -9 0 -109 85 -123 105 -19 26 -6 -14 17 -50
13 -22 25 -45 25 -51 0 -7 -28 -10 -82 -8 -119 3 -158 -4 -158 -28 0 -11 9
-22 20 -25 11 -3 20 -9 20 -13 0 -5 26 -6 57 -3 108 9 188 9 208 -1 11 -6 47
-12 80 -13 33 -2 72 -3 86 -4 15 -1 35 1 45 5 11 4 60 9 109 11 94 4 195 11
280 21 38 5 47 3 39 -6 -6 -6 -18 -12 -25 -13 -8 -2 -19 -6 -26 -10 -6 -4 -14
-3 -18 3 -4 6 -12 7 -18 3 -7 -4 -39 -8 -72 -9 -33 -1 -68 -5 -77 -9 -9 -3
-32 -7 -50 -8 -26 -2 -34 -7 -36 -25 -4 -24 27 -42 63 -36 11 1 175 6 365 9
190 3 356 7 370 9 29 4 207 17 300 21 36 2 198 6 360 9 615 13 688 15 815 20
72 2 195 7 275 10 80 3 196 8 258 10 61 3 112 1 112 -3 0 -17 -102 -26 -378
-35 -68 -2 -125 -6 -129 -9 -3 -3 -15 -2 -28 3 -14 5 -26 5 -33 -2 -6 -6 -12
-6 -16 1 -4 7 -15 7 -31 1 -14 -5 -32 -7 -40 -4 -8 4 -15 1 -15 -6 0 -9 -3
-10 -13 -1 -8 6 -17 8 -20 5 -3 -4 -59 -8 -124 -10 -65 -1 -218 -5 -340 -9
-122 -3 -257 -8 -300 -10 -43 -3 -121 -8 -173 -11 -52 -3 -133 -7 -180 -9 -47
-2 -85 -4 -85 -5 0 -1 -22 -3 -50 -5 -27 -2 -81 -6 -120 -10 -38 -4 -83 -8
-100 -10 -16 -1 -30 -3 -30 -5 0 -1 -16 -3 -35 -5 -19 -2 -57 -6 -85 -9 -63
-7 -176 -18 -193 -19 -7 0 -10 -7 -7 -14 3 -8 5 -19 5 -25 0 -7 4 -7 13 1 9 7
17 7 24 0 7 -7 18 -7 34 0 21 9 112 21 264 36 28 3 73 7 100 10 28 3 111 7
185 10 74 3 163 8 197 11 34 3 124 7 200 9 76 2 201 6 278 9 77 3 250 8 385
11 135 3 268 7 295 9 28 2 120 7 205 11 85 4 157 11 158 16 5 12 32 11 32 -1
0 -6 10 -8 23 -5 12 3 65 7 117 9 53 1 102 6 108 10 7 4 19 3 27 -4 10 -9 20
-7 39 5 14 10 26 13 26 7 0 -5 -10 -16 -22 -25 -13 -8 -20 -18 -16 -22 10 -10
88 -11 158 -1 30 4 109 9 175 11 66 3 120 5 120 6 0 3 120 12 315 23 386 22
590 27 590 15 0 -5 7 -9 16 -9 8 0 12 -5 9 -10 -4 -7 -13 -6 -27 1 -11 6 -23
7 -27 3 -3 -5 -42 -9 -86 -10 -72 0 -148 -4 -440 -19 -49 -3 -110 -7 -135 -9
-25 -3 -83 -8 -130 -11 -120 -9 -360 -43 -393 -57 -15 -6 -32 -20 -38 -30 -10
-18 -8 -19 23 -17 18 2 36 7 39 12 8 10 154 34 202 32 21 0 37 2 37 5 0 4 6 7
13 7 6 0 62 5 122 11 61 6 117 10 125 10 38 -1 267 13 282 18 9 3 19 0 23 -6
3 -6 11 -8 17 -4 17 11 298 14 298 3 0 -6 7 -3 16 6 12 11 20 13 29 5 9 -7 15
-7 19 -1 11 16 60 7 64 -12 2 -10 -3 -17 -12 -17 -9 0 -16 -4 -16 -10 0 -5 16
-10 35 -10 39 0 42 4 20 27 -20 20 -13 26 26 25 19 0 37 -8 46 -21 10 -15 22
-20 44 -17 44 5 48 16 6 16 -31 0 -56 14 -45 25 6 6 121 7 173 1 30 -3 59 -1
73 6 17 9 25 9 34 0 13 -13 58 -16 58 -4 0 6 47 10 149 12 18 0 39 4 45 7 6 4
61 6 122 5 98 -1 113 0 120 16 4 9 6 24 5 33 -1 9 5 22 14 29 18 15 95 31 95
20 0 -10 27 -21 60 -26 27 -3 48 -3 204 0 80 2 103 -1 120 -15 20 -16 47 -17
272 -14 137 2 312 4 389 4 77 0 282 1 455 2 173 1 406 2 518 3 198 0 203 1
200 21 -3 19 -9 20 -128 18 -1115 -13 -1230 -13 -1230 -4 0 11 19 12 315 17
679 10 977 23 1034 46 14 6 74 11 132 12 106 1 139 11 139 41 0 23 -138 35
-257 23 -24 -2 -43 -1 -43 3 0 16 -65 21 -246 19 -227 -1 -388 -8 -428 -16
-27 -6 -24 -2 25 38 61 50 69 68 40 97 -27 27 -43 26 -73 -4 -14 -13 -56 -47
-94 -75 -67 -49 -109 -69 -121 -57 -5 6 74 218 113 304 19 41 18 49 -8 72 -16
16 -25 18 -35 10 -24 -21 -72 -127 -113 -254 -45 -135 -52 -144 -113 -138 -18
2 -132 4 -254 4 -123 0 -223 3 -223 5 0 2 5 13 12 23 9 15 9 23 -1 35 -20 24
-37 19 -70 -21 -37 -44 -37 -43 -11 32 25 72 25 92 2 104 -24 13 -37 3 -53
-41 -7 -21 -17 -38 -21 -38 -4 0 -8 -15 -8 -32 0 -55 -10 -61 -93 -60 -112 2
-227 -20 -250 -49 -10 -12 -16 -31 -13 -42 3 -13 0 -17 -9 -13 -8 3 -27 1 -44
-4 -25 -7 -31 -5 -36 10 -10 31 -35 32 -62 4 -20 -22 -27 -24 -34 -13 -14 22
-12 24 45 79 43 41 62 70 87 132 22 55 39 82 54 88 15 6 26 25 39 72 9 34 34
99 55 143 52 110 71 156 76 182 2 13 22 62 43 110 27 59 37 92 30 100 -6 7 -5
14 2 18 5 3 10 14 10 23 0 10 9 34 19 54 11 19 17 39 14 42 -3 3 1 23 9 43 9
21 26 83 37 137 12 54 28 111 37 127 25 50 54 191 60 302 7 104 8 108 28 102
113 -33 223 -43 280 -26 17 5 51 15 76 22 25 7 47 16 50 19 15 16 89 70 98 70
19 0 82 80 82 104 0 14 10 30 26 41 50 32 78 137 73 275 -1 47 -2 110 -1 140
1 44 -3 59 -21 78 -13 15 -18 26 -11 29 6 2 19 10 29 17 17 12 16 16 -10 72
-15 32 -36 85 -46 116 -18 54 -18 60 -3 83 22 33 4 57 -40 53 l-31 -3 -5 60
c-3 33 -9 67 -14 75 -6 8 -9 28 -8 45 2 33 -52 168 -112 282 -35 64 -68 143
-146 341 -18 45 -36 82 -41 82 -5 0 -6 -7 -3 -15 14 -35 -14 -10 -45 41 -18
31 -47 72 -63 90 -17 19 -26 34 -20 34 15 0 110 59 192 121 41 31 118 85 170
121 156 108 309 234 383 313 66 72 97 91 97 60 0 -8 6 -12 14 -9 8 3 36 -9 63
-26 245 -159 291 -190 346 -237 20 -18 43 -33 50 -33 7 0 26 -13 42 -30 16
-16 33 -30 38 -30 5 0 22 -11 39 -25 35 -29 68 -33 68 -7 0 24 -23 57 -89 126
-50 52 -80 77 -198 168 -20 15 -39 25 -44 22 -5 -3 -12 1 -15 10 -3 8 -51 42
-107 75 -89 53 -168 109 -156 112 2 0 11 2 20 4 25 5 99 54 106 71 10 28 -3
24 -44 -11 -23 -19 -44 -35 -47 -35 -17 0 45 106 110 188 20 24 22 25 38 9 24
-24 29 -21 11 6 -14 21 -11 28 37 107 62 102 87 169 88 233 0 53 7 57 67 32
19 -8 44 -15 54 -15 10 0 74 -17 141 -39 112 -35 179 -53 248 -66 14 -3 38
-10 53 -16 15 -7 30 -9 33 -6 3 3 22 0 42 -7 63 -22 109 -26 129 -11 25 19 7
46 -43 65 -21 8 -40 18 -42 22 -2 4 -13 8 -25 8 -12 0 -51 9 -87 21 -98 32
-125 39 -146 39 -11 0 -24 4 -30 9 -13 13 -146 51 -156 45 -4 -3 -8 -1 -8 4 0
5 -35 15 -77 22 -42 6 -83 14 -90 17 -14 6 -16 47 -7 141 l7 62 43 -40 c24
-22 48 -40 53 -40 17 0 33 30 28 52 -11 43 -52 157 -60 164 -10 10 -9 104 1
104 5 0 7 15 4 33 -5 36 -4 35 52 -34 27 -35 42 -46 56 -42 12 3 20 14 20 27
0 26 -69 148 -128 228 l-42 57 42 12 c60 15 73 23 73 44 0 22 -81 67 -106 59
-12 -3 -19 8 -30 47 -14 52 -43 84 -57 64 -4 -6 -36 -12 -72 -13 -40 -2 -70
-8 -79 -17 -21 -21 5 -28 84 -23 48 3 66 0 70 -10 10 -26 5 -29 -47 -31 -121
-5 -215 -23 -382 -76 -59 -19 -115 -35 -122 -35 -8 0 -54 -22 -103 -50 -49
-27 -93 -50 -99 -50 -12 0 -62 -64 -62 -81 0 -8 18 -10 58 -7 59 4 59 4 59
-24 0 -34 -24 -38 -30 -5 -3 20 -5 19 -16 -10 -9 -22 -21 -34 -41 -38 -35 -8
-63 -37 -58 -62 4 -21 45 -30 61 -14 19 19 27 12 27 -26 -1 -46 -26 -86 -40
-63 -7 11 -11 9 -19 -13 -6 -16 -11 -32 -11 -37 0 -12 29 -20 35 -10 4 6 24
10 46 10 21 0 39 5 39 10 0 6 7 10 15 10 25 0 17 -23 -21 -56 -23 -21 -42 -30
-55 -27 -13 4 -19 0 -19 -11 0 -62 96 -96 274 -96 71 0 116 -4 116 -10 0 -5
-15 -10 -32 -11 -87 -3 -147 -1 -185 6 -38 7 -43 6 -43 -11 1 -44 24 -54 155
-65 50 -4 113 -12 140 -17 28 -5 99 -17 158 -27 128 -22 125 -13 47 -156 -28
-51 -49 -97 -48 -103 1 -6 -8 -29 -20 -51 -15 -29 -21 -34 -22 -20 0 11 7 31
16 43 18 26 8 29 -18 5 -17 -15 -18 -14 -18 21 0 24 -5 39 -15 43 -19 7 -23 3
-28 -23 -2 -10 -6 -26 -9 -34 -3 -8 -12 -48 -19 -87 -7 -40 -16 -73 -22 -73
-8 0 -2 117 9 174 2 12 7 45 10 74 6 44 4 52 -10 52 -9 0 -17 -6 -17 -12 -1
-7 -3 -22 -4 -33 -2 -11 -6 -45 -10 -75 -3 -30 -11 -77 -16 -105 -6 -27 -12
-68 -15 -90 -5 -41 -41 -122 -58 -132 -9 -6 -3 67 9 127 7 30 10 60 25 200 7
58 14 113 16 123 4 12 0 17 -14 17 -17 0 -21 -12 -31 -107 -7 -60 -18 -135
-26 -168 -7 -33 -16 -84 -20 -112 -7 -57 -14 -67 -40 -57 -19 8 -17 44 10 199
19 109 23 207 9 212 -8 3 -16 -27 -24 -84 -6 -48 -18 -116 -26 -151 -8 -35
-14 -76 -14 -92 0 -37 -14 -45 -51 -30 -34 14 -33 10 -15 92 8 35 17 91 21
126 7 59 6 62 -15 62 -16 0 -20 -4 -16 -18 6 -19 -19 -211 -29 -220 -3 -3 -18
-1 -33 4 l-27 10 1 132 c1 73 -3 132 -7 132 -5 0 -9 -21 -9 -46 0 -71 -21
-184 -35 -184 -7 0 -24 11 -38 24 -14 13 -28 22 -30 19 -10 -9 -87 21 -87 34
0 8 -12 13 -30 13 -17 0 -41 6 -53 14 -26 16 -226 77 -277 84 -73 10 -75 9
-78 -25 -3 -25 1 -33 13 -33 9 0 47 -12 83 -26 153 -59 218 -85 229 -92 9 -6
2 -65 -28 -237 -56 -328 -103 -507 -139 -540 -19 -17 -20 -17 -20 3 0 12 9 61
21 109 24 106 89 510 89 556 l-1 32 -15 -35 c-9 -19 -24 -91 -34 -160 -10 -69
-32 -179 -49 -245 -67 -268 -69 -275 -106 -275 -29 0 -29 -2 -11 41 31 76 127
601 112 616 -14 14 -25 -16 -40 -112 -31 -192 -72 -360 -128 -530 -35 -109
-38 -113 -69 -117 -24 -4 -29 -2 -23 11 44 110 131 525 149 714 12 113 -11 77
-35 -55 -37 -207 -60 -320 -81 -391 -10 -37 -28 -100 -39 -140 -29 -103 -49
-143 -75 -155 -13 -6 -25 -8 -28 -6 -3 3 4 36 14 72 19 66 62 250 100 428 20
99 38 242 30 249 -10 11 -33 4 -28 -8 13 -34 -66 -393 -129 -592 -49 -150 -73
-203 -96 -211 -25 -8 -32 0 -20 23 21 39 122 479 122 531 0 6 -6 12 -14 12
-13 0 -18 -16 -32 -105 -3 -22 -8 -43 -10 -47 -3 -4 -16 -52 -30 -105 -39
-150 -86 -296 -100 -312 -11 -12 -84 -44 -84 -37 0 2 11 36 25 77 14 41 44
145 67 232 35 133 39 160 27 168 -23 14 -26 11 -34 -28 -10 -55 -101 -373
-119 -416 -9 -23 -25 -41 -41 -47 -51 -19 -53 -15 -25 73 15 45 35 124 45 176
15 79 16 94 4 102 -22 14 -27 11 -34 -24 -21 -102 -79 -318 -91 -338 -3 -5
-18 -16 -35 -24 -37 -20 -37 -17 2 110 33 111 59 224 59 261 0 25 -28 35 -34
12 -2 -7 -15 -60 -29 -118 -13 -58 -37 -144 -52 -192 -23 -74 -32 -90 -56
-102 -17 -8 -29 -10 -29 -4 0 9 49 171 86 286 19 57 18 112 0 112 -10 0 -18
-19 -25 -57 -25 -130 -116 -363 -143 -363 -13 0 -10 19 16 103 21 67 22 78 8
75 -10 -2 -25 -33 -43 -86 -30 -94 -35 -101 -72 -108 -32 -5 -33 -4 -6 81 25
83 70 306 63 317 -12 19 -20 3 -38 -74 -23 -102 -92 -308 -109 -325 -7 -7 -26
-15 -43 -19 l-31 -6 18 74 c27 108 33 158 20 158 -15 0 -35 -48 -63 -150 l-23
-85 -44 -7 c-25 -4 -47 -6 -49 -3 -2 2 3 25 12 52 15 49 56 254 56 286 0 34
-29 18 -36 -20 -3 -21 -23 -103 -43 -183 l-37 -145 -37 -6 c-24 -4 -37 -2 -37
5 0 6 11 67 24 136 35 183 38 220 16 220 -14 0 -19 -12 -26 -57 -11 -81 -10
-76 -40 -200 -19 -77 -33 -114 -43 -117 -9 -3 -31 -8 -50 -11 -29 -6 -33 -5
-28 9 5 13 47 219 47 232 0 2 -9 4 -20 4 -14 0 -22 -10 -29 -37 -47 -185 -45
-178 -71 -178 -23 0 -25 4 -24 40 0 22 4 73 8 113 8 68 7 72 -12 72 -23 0 -29
-27 -46 -230 -3 -38 -7 -45 -25 -44 -12 0 -21 -2 -21 -5 0 -3 -23 -6 -50 -6
-34 0 -50 4 -50 12 0 22 -41 15 -47 -8 -4 -15 -11 -19 -26 -15 -12 3 -27 0
-34 -6 -9 -7 -14 -6 -18 4 -4 10 -16 13 -36 10 -22 -3 -28 -1 -24 10 4 10 -3
14 -25 16 -16 1 -29 -1 -28 -5 2 -5 -2 -9 -7 -10 -6 -2 -11 2 -11 7 -1 6 -2
13 -3 16 0 4 -9 0 -18 -7 -11 -10 -14 -10 -9 -1 5 8 -2 12 -26 13 -62 2 -81
12 -91 49 -5 19 -15 42 -23 50 -12 13 -14 11 -12 -13 1 -15 5 -27 8 -27 3 0 6
-16 7 -35 2 -36 -4 -40 -44 -29 -26 7 -46 53 -68 159 -17 84 -21 95 -36 95
-13 0 -10 -71 5 -157 7 -40 9 -73 5 -73 -16 0 -65 99 -83 170 -17 63 -36 93
-52 78 -8 -8 27 -172 46 -215 18 -42 18 -43 0 -43 -10 0 -21 4 -25 10 -3 5
-13 6 -22 3 -12 -5 -15 -2 -11 9 9 22 -57 203 -73 203 -8 0 -15 -12 -17 -27
-4 -35 37 -168 54 -175 14 -5 20 -33 8 -33 -3 0 -19 11 -36 25 -16 14 -35 25
-41 25 -16 1 -45 43 -61 87 -12 36 -39 63 -51 52 -3 -3 4 -32 15 -64 11 -32
20 -60 20 -63 0 -5 -41 5 -77 20 -15 6 -31 11 -35 10 -4 -1 -21 12 -37 29 -33
33 -39 29 -17 -12 12 -24 12 -26 -8 -24 -12 1 -37 11 -56 23 -33 21 -50 27
-50 18 0 -2 17 -14 38 -28 39 -26 127 -52 142 -43 5 3 30 0 56 -7 36 -10 48
-10 51 -1 2 7 10 10 18 7 8 -3 11 -13 8 -22 -5 -11 -2 -14 9 -10 8 4 38 -7 67
-22 28 -16 65 -31 81 -35 17 -4 30 -10 30 -14 0 -10 -63 2 -105 19 -16 6 -80
22 -141 35 -108 23 -172 44 -384 123 -138 52 -191 74 -273 112 -72 33 -152 60
-177 59 -8 0 14 -11 50 -23 36 -13 93 -37 128 -55 34 -17 83 -40 110 -50 26
-10 72 -30 102 -44 130 -59 375 -140 502 -166 62 -13 97 -39 37 -27 -19 3 -59
9 -89 12 -30 3 -59 11 -65 18 -5 7 -46 21 -90 30 -97 21 -106 23 -320 79 -93
25 -206 56 -250 70 -44 14 -107 33 -140 43 -33 10 -107 42 -165 72 -58 30
-199 99 -315 154 -189 90 -486 250 -526 284 -8 8 -48 30 -87 49 -51 24 -93 56
-145 107 -116 117 -144 138 -180 138 l-31 0 24 -17 c14 -9 68 -56 120 -103
114 -103 151 -130 181 -130 12 0 36 -11 53 -24 47 -36 308 -186 421 -243 296
-149 578 -285 640 -308 77 -29 117 -47 125 -56 6 -6 194 -59 340 -94 58 -14
110 -32 116 -40 6 -8 14 -12 17 -9 3 3 18 -1 34 -10 37 -20 8 -21 -48 0 -41
14 -155 43 -459 114 -69 16 -161 43 -205 60 -44 16 -84 30 -88 30 -13 0 -381
185 -482 242 -49 28 -151 90 -225 138 -168 108 -230 143 -237 136 -14 -14 77
-79 268 -192 221 -131 362 -209 449 -245 65 -28 170 -88 193 -111 9 -9 42 -24
74 -34 32 -9 81 -27 108 -39 54 -24 137 -44 285 -71 52 -9 111 -23 130 -30 34
-12 33 -12 -25 -9 -33 2 -60 5 -60 5 0 1 -12 3 -27 5 -230 30 -362 76 -570
197 -35 20 -108 52 -164 71 -116 40 -209 88 -454 235 -188 113 -337 211 -413
275 -44 36 -47 42 -41 73 5 27 3 35 -12 41 -11 4 -25 13 -33 21 -11 10 -16 11
-21 2 -6 -9 -10 -9 -16 2 -5 7 -22 21 -37 31 -38 24 -84 73 -121 129 -17 25
-62 85 -100 133 -53 68 -66 89 -55 96 8 5 20 9 27 9 13 0 127 42 167 61 19 9
18 9 -3 5 -12 -2 -20 0 -17 4 7 12 -28 30 -58 30 -13 0 -55 -8 -95 -19 l-71
-18 -19 21 c-10 11 -35 45 -56 74 -21 28 -40 52 -42 52 -6 0 63 -109 83 -132
16 -18 16 -18 -54 -43 -25 -9 -73 57 -148 206 -18 36 -41 71 -50 79 -16 13
-16 12 0 -25 19 -47 75 -150 121 -222 l33 -52 -40 -11 c-23 -6 -42 -10 -44 -8
-1 2 -42 79 -90 171 -83 162 -94 197 -60 197 22 0 175 93 204 124 34 36 14 77
-21 42 -22 -22 -78 -47 -96 -44 -15 3 -14 5 2 18 11 8 37 32 58 54 36 35 39
42 33 75 -4 20 -15 55 -26 78 -10 23 -19 47 -19 52 0 11 22 10 53 -4 35 -15
37 9 6 63 -21 38 -46 63 -87 90 -31 20 -61 35 -65 34 -5 -1 -16 7 -25 19 -11
13 -30 21 -52 22 -19 1 -38 6 -41 10 -4 5 -18 10 -32 10 -18 2 -27 9 -31 27
-6 26 -93 98 -179 145 -56 32 -71 55 -62 97 l7 30 37 -34 c39 -37 93 -73 159
-107 39 -20 42 -20 42 -4 0 11 -35 41 -91 78 -93 61 -149 114 -149 140 0 27
29 16 107 -41 70 -50 143 -94 158 -94 3 0 5 6 5 13 0 10 -95 84 -244 191 -18
12 -18 17 -7 45 8 17 15 31 18 31 2 0 58 -36 124 -81 66 -44 127 -78 135 -75
21 8 8 29 -34 52 -76 44 -222 158 -221 173 0 9 6 30 12 47 l12 32 84 -64 c83
-63 117 -81 129 -70 3 4 -3 15 -14 25 -31 31 -166 121 -181 121 -17 0 -17 6 7
75 11 32 20 65 20 74 1 27 41 106 48 95 12 -17 206 -154 220 -154 6 0 12 7 12
15 0 8 -4 15 -9 15 -15 0 -208 147 -213 162 -4 10 17 82 28 97 2 2 15 -6 29
-17 14 -12 41 -26 58 -32 21 -7 37 -22 47 -43 17 -37 41 -45 64 -21 21 21 17
35 -18 54 -48 27 -145 121 -139 136 4 10 15 4 42 -24 21 -21 57 -52 82 -68 24
-16 48 -39 54 -52 11 -26 28 -28 49 -6 27 27 22 35 -57 89 -90 61 -143 126
-121 148 3 3 40 -23 81 -58 42 -36 79 -62 84 -59 19 11 7 44 -23 65 -42 28
-108 91 -108 101 0 15 20 8 78 -30 32 -20 86 -46 120 -57 46 -15 62 -25 62
-38 0 -11 5 -15 11 -11 6 3 9 17 6 30 -2 13 1 24 7 25 90 6 115 12 139 30 16
11 39 22 51 23 49 6 96 55 96 101 0 16 10 15 57 -2 19 -7 28 27 13 50 -7 12
-12 48 -11 86 2 100 -45 232 -109 306 -99 113 -34 76 74 -42 45 -50 106 -93
106 -76 0 10 -211 213 -222 213 -16 0 -8 37 12 55 18 17 21 15 87 -43 173
-154 207 -182 216 -173 17 17 0 37 -115 138 -148 131 -146 128 -114 148 25 17
26 16 108 -49 46 -36 106 -85 133 -110 51 -47 81 -63 93 -51 7 7 -47 60 -186
180 -44 39 -79 75 -78 80 7 28 44 9 133 -67 152 -130 200 -168 212 -168 28 0
3 32 -92 115 -147 130 -167 151 -167 174 0 34 30 25 80 -23 55 -54 197 -156
216 -156 26 0 14 17 -38 58 -50 39 -226 212 -202 198 7 -3 19 5 28 19 9 14 23
25 30 25 8 0 62 -47 120 -105 58 -58 113 -105 122 -105 8 0 14 4 12 9 -1 5
-54 62 -116 125 l-112 116 32 20 c18 11 37 20 43 20 5 0 52 -44 105 -98 106
-110 210 -186 210 -154 0 4 -50 52 -111 107 -118 107 -164 159 -154 175 8 13
52 13 60 0 10 -16 37 -12 60 10 19 18 23 18 42 5 12 -8 49 -58 84 -110 57 -88
79 -109 93 -86 3 4 -19 41 -50 81 -69 91 -87 132 -74 166 14 35 13 37 -11 31
-13 -3 -19 -1 -16 6 3 7 10 11 16 10 6 -2 11 2 11 7 0 6 12 4 29 -5 18 -9 48
-45 76 -92 26 -43 56 -88 68 -100 24 -27 47 -31 25 -5 -20 23 -120 189 -135
225 -7 16 -10 33 -7 38 7 12 65 42 70 37 6 -6 74 -188 87 -230 6 -21 15 -38
20 -38 11 0 -1 60 -34 166 -16 50 -29 100 -29 111 0 30 29 38 39 10 51 -128
144 -344 151 -351 20 -20 9 33 -26 125 -20 52 -50 133 -67 182 -30 85 -30 87
-11 101 24 18 31 13 50 -32 8 -20 20 -48 25 -62 6 -14 34 -83 62 -154 29 -70
57 -128 62 -127 17 3 8 34 -63 218 -38 98 -67 184 -64 191 2 6 14 12 26 12 18
0 28 -14 55 -82 79 -201 133 -307 139 -276 2 9 -3 29 -11 45 -8 15 -43 100
-77 188 l-62 159 22 18 c13 10 28 17 34 15 5 -2 42 -83 82 -181 71 -176 86
-206 97 -189 7 10 -118 339 -137 362 -8 11 -8 15 0 18 7 2 37 19 69 38 32 19
62 35 68 35 6 0 24 4 41 9 86 26 105 29 116 16 14 -17 45 -149 60 -255 6 -47
16 -98 22 -113 18 -46 29 -9 18 59 -12 80 -18 134 -26 229 -3 44 -8 82 -9 85
-8 13 13 29 46 35 l35 7 -1 -64 c-1 -96 19 -370 31 -410 3 -10 10 -18 16 -18
8 0 9 28 3 93 -4 50 -10 155 -14 232 -4 77 -10 147 -15 156 -6 13 5 18 63 27
38 7 76 12 85 12 12 0 14 -29 12 -195 -2 -108 0 -198 4 -200 4 -3 18 -46 30
-96 16 -65 31 -101 51 -124 16 -18 29 -37 29 -42 0 -22 43 -63 65 -63 37 0 39
17 6 62 -43 58 -40 75 12 89 23 7 47 18 53 26 10 11 13 11 18 -2 3 -9 -3 -24
-15 -36 -14 -14 -19 -30 -17 -52 3 -30 5 -32 46 -32 23 0 42 -3 42 -7 0 -5 5
-8 10 -8 6 0 10 7 10 15 0 11 9 15 31 13 17 -1 33 -6 35 -10 7 -11 -56 -37
-73 -31 -21 8 -63 -6 -63 -21 0 -7 9 -21 20 -31 16 -14 30 -17 67 -12 56 7
154 46 184 73 11 10 35 23 52 29 31 10 44 28 67 92 9 24 18 32 34 30 16 -1 20
3 19 18 -5 37 9 95 25 112 10 9 18 26 18 37 1 12 13 53 27 91 14 39 36 124 50
190 35 169 56 235 73 235 18 0 19 6 -16 -129 -43 -167 -108 -478 -112 -531 -2
-33 1 -45 11 -45 15 0 15 3 109 453 28 134 54 247 57 250 4 4 67 8 141 10 110
3 134 1 134 -11 0 -7 -15 -63 -34 -123 -91 -288 -180 -700 -147 -680 4 3 16
42 26 88 36 168 117 477 156 600 l41 126 36 -5 c20 -3 38 -7 39 -8 2 -1 -8
-35 -21 -76 -54 -165 -87 -281 -116 -408 -34 -153 -35 -161 -15 -161 9 0 17
14 21 38 20 116 71 304 116 432 56 157 68 180 94 180 13 0 24 -4 24 -9 0 -5
-20 -65 -44 -133 -49 -140 -94 -319 -98 -392 -3 -48 -2 -49 31 -58 31 -9 33
-11 26 -41 -11 -48 -6 -110 10 -126 8 -8 17 -13 19 -10 3 3 12 54 21 114 22
152 23 157 33 167 14 14 44 -3 37 -21 -8 -21 -45 -199 -45 -218 0 -9 9 -14 23
-13 49 4 59 1 52 -20 -4 -14 2 -28 20 -46 23 -23 32 -26 76 -22 l49 5 -20 -33
c-10 -19 -15 -34 -9 -34 5 0 12 7 15 15 4 9 17 14 37 12 25 -2 36 5 65 43 19
25 44 49 57 53 14 5 39 38 67 90 25 45 70 124 101 175 32 51 57 95 57 99 0 3
15 31 34 62 19 31 51 88 71 126 52 100 69 129 79 137 5 3 27 0 49 -8 22 -8 50
-14 63 -14 12 0 26 -5 29 -10 3 -6 -22 -65 -57 -133 -132 -258 -179 -360 -169
-370 6 -6 35 41 80 129 39 77 85 160 103 185 18 26 52 74 76 108 43 62 67 74
102 51 12 -8 13 -13 2 -27 -7 -10 -25 -37 -40 -61 -15 -24 -49 -76 -75 -116
-52 -80 -139 -264 -131 -278 10 -16 23 3 77 115 50 105 192 337 214 350 8 5
86 -18 102 -30 3 -2 -7 -16 -21 -31 -79 -84 -242 -361 -224 -379 10 -10 30 17
68 92 17 32 66 112 109 176 59 89 85 119 109 127 30 11 80 2 80 -14 0 -4 -17
-30 -38 -58 -158 -211 -222 -306 -222 -334 0 -22 20 -2 57 57 20 31 77 112
127 181 49 69 91 127 93 129 2 2 11 -3 20 -11 35 -30 46 -32 29 -5 -16 24 -16
26 6 41 25 18 58 21 58 6 0 -5 6 -10 14 -10 29 0 26 -19 -10 -57 -34 -36 -151
-178 -221 -267 -32 -40 -41 -66 -25 -66 8 0 94 100 159 186 60 80 130 154 145
154 8 0 19 -5 26 -12 17 -17 -1 -45 -159 -248 -77 -99 -94 -129 -82 -141 8 -8
54 45 184 211 28 36 71 86 95 112 42 44 46 46 74 36 17 -5 30 -14 30 -20 0 -5
-25 -38 -56 -71 -87 -96 -244 -317 -244 -344 0 -15 46 38 139 161 55 72 124
155 155 185 l55 54 30 -20 31 -19 -38 -31 c-59 -47 -332 -421 -332 -455 0 -24
29 5 80 80 76 111 172 233 252 319 66 70 68 71 89 55 20 -17 19 -19 -88 -128
-135 -138 -273 -334 -235 -334 6 0 31 29 57 66 50 69 229 276 287 332 28 27
40 32 62 26 14 -3 28 -9 31 -13 5 -9 -76 -108 -269 -329 -55 -63 -93 -132 -73
-132 7 0 29 22 48 49 59 85 287 338 317 354 20 10 35 11 46 5 15 -8 11 -16
-31 -56 -63 -60 -247 -270 -262 -299 -32 -62 5 -56 48 7 18 28 95 114 170 191
131 135 137 140 156 124 17 -14 17 -17 5 -22 -27 -11 -216 -216 -255 -277
l-20 -31 41 32 c22 18 70 64 107 103 66 71 107 100 140 100 36 0 14 -34 -112
-175 -29 -33 -72 -85 -94 -115 -22 -30 -60 -76 -85 -102 -25 -26 -42 -51 -38
-55 13 -13 39 12 106 100 116 150 292 337 318 337 9 0 30 -10 46 -23 l28 -23
-27 -18 c-117 -77 -375 -380 -375 -441 0 -18 24 1 46 38 34 54 67 91 231 260
73 76 133 142 133 147 0 19 23 10 72 -30 28 -22 55 -40 59 -40 19 0 8 -16 -23
-34 -48 -29 -200 -181 -270 -270 -35 -44 -80 -100 -102 -123 -21 -24 -34 -43
-29 -43 19 0 103 71 139 118 40 53 82 97 216 229 l94 93 34 -35 c19 -19 29
-35 23 -35 -17 0 -164 -119 -230 -188 -110 -112 -201 -332 -152 -363 8 -5 22
-6 32 -3 11 3 17 0 17 -10 0 -10 9 -16 26 -16 14 0 23 4 19 10 -4 6 1 24 9 40
9 17 23 44 32 61 20 38 140 166 148 159 3 -3 -15 -28 -40 -55 -74 -81 -146
-197 -131 -211 10 -10 97 61 198 161 60 59 109 103 109 97 0 -10 -69 -92 -98
-116 -14 -11 -33 -31 -66 -69 -25 -29 -76 -141 -76 -167 0 -14 7 -20 23 -20
13 0 26 3 30 6 3 4 24 7 46 8 27 2 49 10 66 26 20 18 25 20 25 8 0 -9 3 -23 6
-32 4 -11 -5 -18 -35 -27 -41 -12 -55 -28 -45 -54 9 -22 45 -19 108 9 50 22
55 23 70 7 15 -14 16 -14 11 0 -4 11 3 22 20 33 32 21 41 16 25 -13 -17 -33 9
-36 82 -11 60 20 86 33 218 108 30 18 60 32 65 32 6 0 24 -26 40 -57 l28 -57
-34 -29 c-19 -16 -59 -46 -89 -66 -201 -134 -255 -185 -220 -206 6 -4 45 18
88 48 74 52 190 112 199 103 3 -2 -21 -23 -51 -45 -88 -66 -123 -105 -131
-148 -5 -31 -12 -41 -36 -50 -48 -19 -33 -67 21 -65 24 0 30 -2 22 -10 -12
-12 -5 -95 9 -114 6 -7 1 -21 -12 -37 -26 -34 -18 -47 32 -47 42 0 66 11 108
48 25 23 26 23 35 3 14 -31 0 -51 -34 -51 -39 0 -50 -25 -22 -52 19 -19 25
-20 64 -9 33 9 198 13 198 5 0 -4 -118 -43 -140 -46 -17 -2 -25 -9 -25 -23 0
-28 31 -30 120 -6 41 12 85 21 98 21 12 0 32 6 43 14 11 8 30 16 44 17 21 4
26 -2 39 -44 17 -55 10 -68 -41 -73 -37 -4 -34 -3 -140 -29 -68 -16 -100 -36
-84 -52 3 -3 55 7 118 21 198 44 185 45 197 -18 l7 -30 21 21 c24 24 21 49
-22 180 -34 105 -27 128 13 41 24 -52 36 -68 52 -68 32 0 34 23 7 76 -14 27
-28 65 -32 84 -14 67 -85 230 -196 446 -61 121 -124 237 -139 259 -46 68 -137
218 -158 262 l-20 42 29 13 c34 15 36 28 8 54 -28 25 -59 87 -59 119 0 43 -30
204 -64 345 -18 74 -41 171 -52 215 -10 44 -22 85 -26 92 -5 6 -11 24 -14 40
-3 15 -15 51 -29 78 -22 48 -85 286 -85 325 0 10 -7 25 -15 34 -8 8 -15 19
-15 24 0 5 -18 37 -40 70 l-41 61 -97 -5 c-154 -8 -327 -33 -377 -54 -11 -5
-31 -11 -45 -13 -79 -16 -274 -68 -330 -88 -62 -23 -164 -79 -287 -161 l-56
-36 -25 29 c-13 17 -50 43 -81 60 -31 16 -75 40 -99 54 -71 40 -103 1 -39 -47
40 -31 142 -83 181 -92 21 -5 26 -10 17 -15 -7 -5 -34 -2 -60 6 -25 8 -77 24
-116 35 -38 11 -74 27 -78 35 -6 10 -12 11 -21 4 -7 -6 -24 -7 -39 -3 l-26 7
80 180 c44 99 92 205 106 236 53 118 23 190 -37 87z m1417 -540 c13 -12 23
-26 23 -32 0 -6 -23 -58 -51 -116 -28 -58 -55 -115 -60 -127 -5 -13 -15 -23
-23 -23 -9 0 -13 -6 -10 -14 3 -8 -9 -42 -26 -75 -31 -59 -50 -77 -50 -47 0 8
-6 16 -12 19 -9 3 0 29 29 88 23 46 51 104 62 129 11 25 37 69 56 99 20 29 33
56 31 59 -16 16 -60 -42 -119 -155 -97 -188 -102 -195 -127 -212 -21 -14 -22
-14 -16 5 3 11 34 72 67 135 34 63 74 139 90 171 24 46 89 118 108 118 3 0 15
-10 28 -22z m58 -130 c10 -21 13 -43 9 -63 -9 -41 -85 -225 -93 -225 -4 0 -20
13 -35 29 l-28 29 56 120 c31 67 56 126 56 131 0 22 19 10 35 -21z m-5807
-223 c28 -83 62 -179 75 -215 14 -36 27 -69 28 -75 2 -5 10 -9 17 -9 24 3 12
-33 -19 -55 l-32 -24 5 28 c6 32 -11 87 -71 222 -22 50 -51 125 -66 166 -21
63 -23 79 -14 107 15 41 15 40 77 -145z m5852 -30 c-4 -5 -10 -23 -14 -40 -4
-16 -18 -52 -32 -81 -13 -28 -24 -58 -24 -67 0 -9 -4 -18 -8 -21 -9 -5 -82 12
-82 19 0 2 16 30 35 62 19 32 35 62 35 67 0 5 17 43 37 85 l37 75 12 -45 c6
-24 8 -48 4 -54z m-350 -67 c0 -18 41 -58 60 -58 9 0 25 -9 34 -19 10 -11 31
-25 47 -31 16 -7 29 -14 29 -16 0 -7 -42 -84 -46 -84 -5 0 -121 87 -168 127
-22 18 -46 33 -53 33 -17 0 -17 16 0 27 11 8 74 30 90 32 4 1 7 -4 7 -11z
m-5596 -80 c57 -124 81 -204 70 -235 -13 -38 -34 -41 -34 -5 0 27 -49 134 -85
185 -8 12 -15 28 -15 37 0 21 20 90 26 90 2 0 20 -33 38 -72z m-488 -3170 c3
-13 27 -63 52 -113 25 -49 56 -111 69 -137 13 -26 28 -50 33 -53 19 -12 10
-33 -16 -39 -33 -9 -35 -7 -129 182 -62 123 -74 156 -65 168 18 21 48 17 56
-8z m-78 -27 c2 -13 -2 -27 -8 -31 -14 -9 2 -46 29 -68 9 -8 10 -11 4 -7 -17
8 -16 -4 0 -24 8 -9 38 -54 67 -101 29 -47 58 -88 64 -92 14 -9 7 -14 -29 -21
-29 -5 -31 -3 -57 61 -14 37 -29 77 -33 90 -4 13 -9 21 -11 19 -5 -5 30 -117
48 -154 6 -13 9 -26 6 -29 -4 -3 -38 59 -76 138 -39 79 -82 160 -97 182 -14
21 -25 39 -23 41 12 10 67 24 88 22 18 -1 26 -9 28 -26z m-104 -102 c18 -42
56 -118 84 -169 57 -101 60 -110 37 -110 -18 0 -68 77 -120 185 -66 140 -75
163 -62 169 22 8 27 1 61 -75z m642 -261 c67 -92 146 -191 202 -251 46 -49 52
-60 41 -73 -10 -13 -9 -22 6 -50 10 -19 16 -37 13 -39 -7 -8 -123 114 -200
209 -74 93 -167 218 -168 227 0 3 15 11 33 17 17 5 33 10 34 11 1 1 18 -23 39
-51z m-123 -17 c18 -31 185 -246 257 -330 73 -86 131 -145 195 -196 67 -54 89
-80 80 -95 -11 -18 -27 -11 -81 35 -87 74 -409 397 -440 440 -15 22 -46 64
-67 93 -22 29 -38 54 -36 55 10 8 55 26 64 26 6 1 18 -12 28 -28z m5954 -5 c8
-8 8 -34 -2 -106 -8 -52 -17 -120 -21 -150 -6 -49 -17 -120 -28 -175 -20 -99
-27 -127 -40 -165 -8 -24 -14 -46 -12 -49 2 -3 -13 -19 -32 -36 l-35 -30 5 30
c3 17 17 80 31 140 31 138 64 363 72 498 2 23 3 48 4 55 1 15 38 7 58 -12z
m-6070 -19 c10 -13 34 -53 53 -90 19 -36 42 -69 52 -74 9 -4 54 -51 100 -104
46 -53 143 -152 216 -220 95 -89 132 -129 132 -146 0 -13 -3 -23 -6 -23 -18 0
-148 114 -275 243 -105 107 -153 163 -170 200 -13 29 -32 61 -41 71 -10 11
-20 28 -24 38 -4 13 -11 17 -21 13 -14 -5 -14 -3 -2 12 9 11 10 14 2 9 -8 -4
-20 5 -33 26 -34 57 -21 93 17 45z m6148 -9 c29 -13 29 -13 0 -183 -8 -44 -19
-116 -25 -160 -6 -44 -18 -110 -27 -148 -12 -57 -18 -68 -39 -73 -31 -8 -38
-1 -26 23 5 10 12 36 15 58 4 22 15 99 26 170 11 72 23 174 27 228 3 53 10 97
15 97 4 0 20 -5 34 -12z m105 -77 c0 -14 -5 -44 -10 -66 -33 -133 -52 -226
-56 -265 -5 -48 -27 -105 -46 -116 -8 -5 -9 0 -4 17 15 52 45 260 52 359 3 58
8 108 11 112 2 4 15 2 28 -4 17 -8 25 -19 25 -37z m70 -16 c10 -12 9 -35 -8
-118 -12 -56 -24 -120 -27 -143 -6 -42 -38 -104 -54 -104 -5 0 -3 30 5 68 7
37 20 117 29 177 9 61 18 116 20 123 6 16 20 15 35 -3z m-5658 -374 c136 -109
605 -394 758 -461 36 -15 106 -40 155 -55 50 -15 94 -31 100 -36 5 -5 19 -9
31 -9 13 0 26 -5 29 -10 7 -12 -4 -10 -143 26 -204 52 -478 188 -755 372 -146
97 -260 190 -265 215 -6 28 14 20 90 -42z m135 -199 c127 -84 326 -203 411
-246 57 -29 253 -111 317 -133 l40 -13 -55 5 c-76 8 -180 46 -329 119 -220
108 -426 232 -477 288 -30 33 -43 58 -30 58 2 0 57 -35 123 -78z m4898 -383
c14 -28 24 -54 21 -57 -3 -3 -2 -10 3 -16 5 -6 30 -60 55 -121 52 -121 56
-127 73 -117 9 6 6 23 -11 67 -14 33 -27 74 -29 92 -3 17 -8 37 -12 42 -3 6 0
11 7 11 7 0 25 -19 40 -43 15 -23 39 -53 53 -67 14 -13 25 -32 25 -43 0 -10 8
-31 19 -45 10 -15 28 -53 40 -85 11 -31 32 -79 45 -105 13 -26 29 -65 36 -87
13 -42 20 -60 68 -165 16 -36 29 -79 30 -97 0 -17 5 -41 11 -52 6 -11 11 -22
11 -24 0 -6 -43 -22 -115 -42 -33 -10 -79 -26 -102 -36 -24 -11 -47 -19 -53
-19 -6 0 -24 -13 -41 -30 -18 -16 -36 -27 -40 -24 -8 5 -120 -53 -208 -108
-25 -16 -48 -21 -87 -20 -47 1 -56 -2 -71 -24 -10 -14 -30 -40 -45 -57 l-26
-32 -21 25 c-11 14 -20 31 -21 39 0 17 130 151 193 197 43 33 61 64 37 64 -18
0 -112 -65 -161 -111 -97 -92 -129 -114 -129 -90 0 11 163 202 209 245 33 32
39 51 17 59 -13 5 -137 -113 -168 -160 -17 -26 -118 -96 -118 -81 0 5 29 40
64 76 62 65 156 203 156 229 0 7 -7 13 -15 13 -16 0 -107 -106 -131 -153 -9
-18 -25 -41 -35 -52 -20 -23 -49 -97 -49 -126 0 -11 7 -19 15 -19 26 0 17 -25
-26 -73 -34 -39 -38 -49 -29 -67 13 -24 52 -27 70 -5 19 23 24 19 48 -31 20
-40 21 -49 9 -63 -7 -9 -19 -45 -26 -80 -11 -57 -10 -66 4 -80 15 -15 19 -13
45 16 30 33 40 28 40 -21 0 -13 16 -44 36 -69 20 -26 39 -61 43 -79 5 -23 16
-37 36 -47 29 -14 48 -32 40 -39 -2 -2 -15 4 -29 13 -29 19 -46 13 -46 -17 0
-11 -8 -35 -19 -52 -13 -22 -21 -60 -25 -131 -4 -55 -11 -116 -16 -135 -5 -19
-16 -89 -25 -155 -9 -66 -21 -124 -26 -129 -5 -6 -9 -20 -9 -33 0 -16 -6 -23
-20 -23 -26 0 -26 2 11 210 52 298 68 414 57 428 -19 23 -38 13 -39 -20 -1
-18 -2 -37 -3 -43 -1 -5 -5 -35 -10 -65 -5 -30 -10 -64 -12 -75 -2 -11 -6 -40
-9 -65 -4 -25 -10 -67 -15 -95 -5 -27 -17 -101 -26 -162 -15 -94 -20 -113 -35
-113 -10 0 -25 -3 -35 -7 -14 -5 -16 -2 -10 18 43 154 129 717 115 756 -9 24
-20 -21 -53 -207 -14 -80 -30 -170 -36 -200 -5 -30 -19 -104 -30 -165 -40
-223 -40 -218 -24 -242 20 -32 17 -38 -11 -19 -13 9 -41 16 -60 16 -30 0 -35
3 -31 18 14 49 48 214 71 352 15 85 35 200 46 254 24 124 24 136 0 136 -16 0
-20 -10 -26 -52 -11 -88 -32 -206 -83 -468 -44 -221 -50 -247 -73 -293 -12
-23 -23 -43 -24 -45 -1 -1 -13 2 -27 7 l-25 9 33 199 c19 109 35 209 38 223
32 184 55 323 54 328 -2 9 11 62 22 89 7 16 5 23 -6 27 -27 10 -32 7 -38 -31
-3 -21 -8 -49 -10 -63 -3 -14 -14 -83 -26 -155 -11 -71 -28 -159 -36 -195 -27
-118 -52 -254 -59 -320 -8 -88 -12 -97 -40 -102 -25 -5 -25 -4 -20 51 7 73 21
156 44 263 12 61 15 90 7 98 -7 7 -6 10 2 10 7 0 12 7 12 15 0 29 -17 15 -33
-27 -19 -50 -77 -335 -77 -378 0 -30 -14 -48 -25 -30 -3 5 8 83 24 172 16 90
37 210 46 268 9 58 20 124 26 148 5 24 7 47 4 53 -4 5 -2 9 3 9 5 0 10 10 11
23 3 50 8 73 19 95 7 12 10 22 7 22 -4 0 -3 5 1 11 12 21 12 79 -1 79 -12 0
-29 -53 -26 -78 1 -8 -4 -23 -12 -35 -8 -12 -16 -38 -20 -57 -3 -19 -24 -129
-47 -245 -23 -115 -53 -268 -66 -340 -40 -217 -74 -305 -118 -305 -18 0 -21
11 -7 26 4 5 23 104 41 219 18 116 47 290 66 389 18 98 31 183 28 187 -3 5 -2
9 3 9 4 0 13 16 19 35 10 33 10 35 -11 35 -18 0 -24 -11 -43 -92 -34 -148 -90
-447 -114 -613 -17 -114 -26 -151 -35 -148 -7 3 -24 2 -38 -1 -21 -5 -25 -12
-25 -46 0 -30 -4 -40 -16 -40 -17 0 -15 26 11 170 8 41 17 95 20 120 5 37 42
235 69 375 4 17 8 41 10 55 2 14 7 40 11 59 6 27 5 33 -6 29 -13 -4 -43 -78
-53 -130 -2 -13 -15 -81 -29 -153 -36 -183 -74 -387 -87 -473 -10 -63 -15 -75
-37 -83 -58 -22 -61 -17 -48 69 7 42 18 118 25 167 6 50 16 113 21 140 22 112
47 308 43 333 -9 46 -24 50 -24 6 0 -21 -7 -68 -16 -104 -8 -36 -19 -87 -24
-115 -5 -27 -20 -111 -34 -185 -13 -74 -27 -170 -31 -212 l-7 -78 -39 0 c-47
0 -47 0 -13 195 7 38 34 263 36 290 1 36 -2 45 -15 45 -12 0 -32 -87 -43 -180
-1 -14 -14 -95 -28 -180 -14 -85 -28 -175 -31 -200 -5 -44 -7 -46 -61 -67
l-56 -22 6 22 c4 12 9 38 12 57 2 19 11 76 18 125 27 172 40 335 28 347 -7 7
-14 10 -16 7 -11 -10 -86 -495 -86 -551 0 -4 -15 -6 -32 -4 -40 4 -43 16 -29
99 9 55 30 225 48 402 11 102 10 119 -9 123 -11 2 -16 -3 -16 -15 1 -10 -4
-47 -10 -83 -19 -104 -62 -424 -62 -461 -1 -39 -22 -73 -42 -66 -7 2 -21 0
-30 -5 -15 -7 -18 -4 -19 14 -2 30 -2 18 5 133 14 202 25 324 32 348 9 30 -5
67 -25 67 -13 0 -19 -7 -18 -22 0 -22 -9 -123 -18 -183 -10 -67 -18 -156 -24
-260 -3 -60 -9 -109 -13 -107 -5 1 -29 2 -54 2 l-45 0 5 42 c3 24 8 150 11
281 5 203 3 237 -9 237 -19 0 -23 -17 -31 -125 -3 -49 -13 -155 -21 -235 -9
-80 -15 -166 -15 -192 0 -26 -3 -47 -7 -47 -18 3 -26 -2 -15 -9 6 -4 13 -20
15 -36 4 -34 -18 -52 -54 -43 -23 6 -26 13 -31 64 -11 119 -16 155 -21 161 -3
3 -6 -12 -7 -34 l-1 -39 -8 35 c-5 19 -6 38 -3 43 3 5 7 96 10 203 4 166 2
194 -10 194 -10 0 -17 -14 -20 -42 -3 -24 -8 -56 -11 -73 -11 -72 -36 -324
-36 -367 l0 -47 -36 1 c-23 1 -38 8 -45 20 -6 11 -9 117 -8 258 1 229 -3 272
-22 253 -12 -12 -29 -214 -29 -340 l0 -102 -50 25 -49 25 -3 137 c-3 123 -5
137 -21 140 -15 3 -18 -2 -16 -25 1 -15 1 -76 1 -135 l-2 -108 -27 0 c-16 0
-38 8 -51 18 -23 18 -27 42 -34 215 -1 30 -18 38 -18 8 0 -11 -4 -23 -10 -26
-5 -3 -9 -38 -9 -76 1 -39 -2 -73 -5 -76 -5 -6 -81 23 -98 36 -4 3 -8 24 -9
46 -2 57 -8 75 -25 75 -13 0 -15 -14 -12 -80 2 -44 3 -80 3 -80 0 0 -25 13
-55 28 l-55 28 -9 82 c-6 55 -13 83 -23 86 -12 5 -14 -8 -11 -79 2 -47 0 -85
-4 -85 -9 0 -78 44 -100 64 -13 11 -18 32 -18 69 -1 28 -7 66 -15 82 -13 28
-13 25 -14 -57 -1 -49 -3 -88 -6 -88 -3 0 -32 13 -65 30 -58 29 -59 30 -64 82
-4 29 -7 78 -9 108 -1 41 -6 55 -17 55 -13 0 -14 -17 -11 -108 l3 -107 -28 10
c-16 6 -33 14 -39 18 -6 4 1 -3 15 -15 14 -13 33 -23 43 -23 9 0 17 -8 17 -17
0 -10 3 -42 7 -71 l6 -54 -41 21 c-48 25 -51 29 -57 78 -8 69 -25 162 -35 189
-6 14 -10 47 -10 74 0 54 -7 80 -22 80 -6 0 -8 -28 -7 -69 2 -39 0 -73 -3 -77
-4 -3 -4 -14 1 -23 5 -9 11 -35 15 -59 6 -42 6 -42 -21 -36 -62 15 -72 23 -79
61 -5 21 -7 41 -6 46 1 4 -3 39 -9 77 -8 47 -16 70 -25 70 -16 0 -17 -56 -5
-155 5 -33 7 -61 6 -63 -5 -6 -96 52 -104 66 -14 27 -29 163 -32 289 -2 85 -9
110 -28 99 -12 -8 -8 -232 5 -324 l7 -44 -49 25 c-70 36 -81 52 -88 132 -6 78
-15 182 -20 235 -2 19 -4 115 -5 213 -1 157 -3 177 -17 177 -15 0 -16 -24 -10
-277 3 -153 10 -305 15 -338 6 -33 8 -61 6 -63 -9 -10 -90 25 -120 52 -33 30
-34 34 -39 121 -3 50 -8 104 -10 120 -4 30 -13 129 -21 235 -3 30 -7 152 -10
270 -4 146 -10 217 -18 222 -6 4 -13 5 -15 4 -4 -5 -3 -363 3 -466 4 -91 15
-223 21 -253 8 -44 16 -237 10 -237 -18 0 -88 53 -96 73 -5 12 -19 94 -32 182
-26 183 -37 160 -18 -38 7 -70 10 -130 7 -133 -6 -6 -75 24 -82 36 -2 4 -7 47
-10 96 -9 147 -16 245 -24 312 -4 35 -4 65 1 68 5 3 5 10 2 16 -4 6 -7 89 -6
185 1 148 -2 173 -15 173 -12 0 -14 -12 -12 -67 2 -38 1 -72 -2 -78 -8 -13 -3
-402 5 -480 4 -33 11 -94 15 -135 5 -41 8 -76 7 -77 0 -1 -24 10 -52 24 -62
30 -74 53 -74 136 0 34 -4 89 -9 122 -23 147 -31 301 -31 606 0 154 -2 186
-14 186 -8 0 -17 -14 -20 -31 -7 -35 1 -642 9 -696 3 -19 9 -69 15 -110 6 -41
13 -85 16 -98 l5 -23 -39 20 c-21 11 -43 25 -49 33 -6 7 -14 60 -17 118 -4 58
-8 121 -10 140 -4 44 -19 315 -19 355 0 17 2 46 4 65 3 30 1 35 -18 38 -23 3
-23 3 -18 -115 3 -65 7 -176 10 -248 6 -150 13 -241 31 -412 6 -57 1 -62 -35
-37 -20 14 -22 24 -20 73 1 31 -3 68 -9 82 -17 41 -27 298 -26 647 1 265 -1
322 -12 322 -8 0 -14 -6 -14 -12 -1 -7 -3 -44 -5 -83 -10 -145 -12 -494 -4
-610 5 -66 10 -148 13 -183 2 -34 0 -62 -5 -62 -6 0 -6 -8 0 -19 12 -22 18
-88 9 -97 -4 -3 -19 6 -33 20 -18 18 -25 32 -20 44 4 9 7 30 6 46 -1 22 2 27
14 22 10 -4 7 6 -10 29 l-26 34 -2 429 c-1 237 -5 428 -8 426 -21 -13 -27
-115 -24 -414 2 -179 6 -343 9 -365 8 -63 -6 -75 -42 -38 -29 32 -29 32 -35
199 -11 259 -8 559 5 672 8 71 8 106 1 113 -18 18 -32 -39 -46 -190 -20 -212
-10 -761 14 -815 19 -41 -2 -56 -35 -23 -27 27 -35 74 -15 94 8 8 8 17 -1 33
-7 14 -14 82 -16 169 -2 80 -6 225 -9 321 -3 135 -1 190 11 240 27 118 106
395 116 407 6 7 8 20 4 28 -11 31 -33 13 -61 -50 -15 -36 -30 -65 -33 -65 -3
0 -10 7 -17 16 -9 13 -6 27 16 73 26 51 49 153 51 224 1 19 4 25 12 17 22 -22
31 -8 32 46 2 65 16 86 40 62 14 -14 15 -23 5 -63 -6 -25 -9 -51 -5 -56 10
-17 86 -69 101 -69 30 0 25 31 -11 66 -33 32 -49 70 -27 62 22 -7 211 -191
211 -204 0 -19 17 -18 28 2 8 14 14 14 53 3 53 -15 68 -25 68 -47 0 -38 12
-136 16 -140 2 -3 12 1 21 9 11 9 14 22 10 42 l-6 30 20 -26 c11 -14 20 -28
20 -31 0 -10 72 -116 79 -116 4 0 12 5 18 11 15 15 73 -7 73 -28 0 -8 4 -12 9
-8 20 12 159 -88 381 -274 54 -45 84 -49 115 -16 14 16 25 34 25 42 0 11 4 11
20 1 22 -14 23 -13 117 85 31 31 59 57 62 57 3 0 4 -25 3 -55 -4 -54 1 -62 25
-47 11 7 35 121 27 133 -2 3 12 21 32 40 l34 33 -4 -29 c-3 -17 -8 -61 -11
-98 -5 -62 -4 -68 12 -65 14 3 21 22 33 93 16 93 24 115 42 115 10 0 8 -44 -8
-167 -6 -49 -5 -53 14 -53 17 0 22 8 27 38 33 196 53 267 76 267 7 0 15 -8 17
-17 2 -10 -1 -18 -7 -18 -6 0 -11 -15 -11 -33 0 -18 -7 -57 -15 -85 -11 -35
-13 -58 -6 -69 6 -12 5 -20 -6 -28 -13 -9 -13 -16 -4 -33 17 -32 31 -27 31 11
0 18 7 42 15 53 8 10 15 36 15 56 0 20 5 40 10 43 5 3 10 18 10 33 l1 27 15
-29 c9 -15 13 -37 11 -48 -4 -14 2 -22 21 -29 35 -13 82 -58 82 -79 0 -8 -10
-40 -21 -70 -12 -30 -29 -75 -38 -100 -9 -25 -19 -49 -22 -55 -3 -5 -16 -44
-29 -85 -13 -41 -27 -84 -31 -95 -4 -11 -45 -132 -90 -270 -49 -146 -93 -262
-106 -278 -31 -39 -31 -84 2 -99 19 -8 28 -8 40 2 13 11 15 9 15 -11 0 -35 27
-73 126 -179 49 -53 132 -147 184 -208 69 -83 100 -112 115 -111 11 2 30 -1
43 -5 24 -8 74 7 102 30 8 7 28 15 44 18 31 6 54 24 124 96 24 24 66 61 94 82
28 20 66 55 85 78 19 22 49 48 67 57 17 9 41 25 52 37 12 12 32 28 45 38 21
14 22 19 12 37 -7 11 -13 30 -13 41 0 11 -4 20 -8 20 -17 0 -67 192 -76 292
-2 18 -8 47 -15 63 -7 17 -17 66 -23 110 -5 44 -24 130 -41 190 -16 61 -35
128 -41 150 -6 22 -15 46 -20 54 -16 24 -65 174 -61 182 3 4 22 21 43 37 l37
30 -4 -85 c-3 -78 -2 -85 15 -81 16 3 21 18 29 101 8 79 14 102 29 113 31 22
34 18 25 -38 -14 -94 -17 -178 -6 -185 20 -12 33 27 45 138 12 105 23 136 45
122 4 -3 6 -11 3 -19 -3 -8 -8 -64 -12 -124 -5 -94 -4 -110 9 -110 17 0 23 21
33 103 5 46 10 57 23 55 13 -3 16 -17 16 -70 0 -77 16 -106 41 -74 8 11 12 27
9 35 -2 9 0 23 5 31 9 13 11 13 20 0 12 -19 12 -27 0 -35 -6 -4 0 -20 15 -39
14 -18 25 -40 25 -48 0 -18 24 -30 43 -22 8 3 20 -2 27 -11 11 -13 11 -20 0
-39 -15 -29 -5 -66 19 -66 32 0 81 31 81 50 0 10 -4 22 -10 25 -5 3 -10 14
-10 24 0 10 -11 39 -25 65 -19 36 -21 46 -10 46 8 0 15 5 15 10 0 38 -143 244
-230 333 -21 21 -66 74 -101 119 -35 44 -86 106 -113 136 l-50 56 29 12 c21 8
34 9 46 1 13 -8 24 -8 41 0 20 10 69 18 231 38 15 2 58 6 95 10 67 7 102 11
155 19 44 7 21 -12 -26 -19 -89 -15 -220 -53 -229 -66 -7 -11 -11 -11 -15 -1
-7 18 -53 15 -53 -3 0 -26 121 -16 275 22 11 3 34 7 52 9 18 1 46 10 64 19 17
9 33 14 36 12 2 -3 7 -23 10 -45 l5 -39 -53 -6 c-43 -4 -232 -60 -248 -73 -1
-1 0 -7 3 -12 3 -5 54 3 118 18 272 65 269 65 278 49 8 -11 14 -9 37 14 23 23
25 27 9 27 -28 0 -13 25 17 28 27 3 37 -11 16 -23 -6 -5 -4 -12 8 -20 17 -13
15 -15 -22 -30 -75 -29 -106 -48 -93 -56 9 -6 9 -13 0 -34 -10 -21 -10 -26 0
-23 7 3 16 18 20 35 9 34 30 46 119 67 30 7 62 17 71 21 28 11 33 -20 9 -51
-12 -15 -19 -29 -17 -31 3 -3 33 5 68 18 35 12 71 22 81 21 9 0 17 3 17 7 0
11 43 30 131 56 42 13 93 32 115 43 21 10 83 34 138 52 71 23 100 38 103 51 5
18 16 24 37 20 4 -1 24 7 43 19 19 11 45 20 57 20 13 0 49 12 80 26 31 14 63
27 71 28 8 1 18 5 21 9 11 11 26 8 19 -3 -3 -5 1 -10 9 -10 9 0 16 -5 16 -12
0 -6 -2 -9 -5 -6 -13 12 -141 -24 -183 -52 -25 -16 -61 -33 -81 -36 -20 -4
-48 -15 -62 -25 -14 -10 -59 -31 -100 -45 -41 -15 -82 -36 -92 -46 -10 -10
-26 -18 -37 -18 -10 0 -26 -7 -34 -16 -9 -8 -20 -13 -26 -9 -15 9 -92 -34 -83
-48 5 -8 2 -8 -9 1 -13 11 -24 9 -62 -10 -44 -21 -59 -38 -34 -38 14 0 120 36
163 55 44 19 201 82 265 106 30 11 91 37 135 59 94 45 125 55 125 41 0 -10 -7
-13 -26 -10 -4 0 -10 -5 -14 -11 -4 -6 -45 -31 -91 -55 -46 -24 -83 -48 -82
-54 2 -6 -3 -8 -11 -5 -15 6 -167 -71 -261 -131 -86 -55 -303 -185 -308 -185
-8 0 -260 -170 -282 -190 -11 -10 -29 -21 -41 -24 -12 -4 -43 -26 -70 -51 -26
-24 -51 -40 -54 -35 -9 14 -80 -11 -80 -28 0 -8 -6 -20 -14 -26 -12 -9 -10
-17 10 -48 13 -21 31 -38 40 -38 19 0 90 36 131 67 18 13 53 30 78 37 24 8 84
41 132 73 73 49 343 208 378 222 5 2 35 21 65 41 30 20 105 66 165 102 61 36
148 90 195 120 47 30 100 62 118 71 18 9 48 25 67 37 37 23 37 23 56 -42 7
-27 17 -48 21 -48 17 0 20 32 8 77 -13 44 -12 46 11 64 13 10 27 19 31 19 8 0
17 -29 22 -75 2 -16 4 -33 5 -37 2 -13 41 -9 41 5 0 6 -7 34 -15 61 -17 56
-19 80 -6 72 5 -3 14 1 21 9 7 8 19 15 26 15 14 0 17 -9 31 -90 6 -29 14 -45
23 -45 12 0 14 13 12 68 -2 37 -1 67 2 67 2 0 21 -34 41 -75 20 -43 42 -75 50
-75 19 0 19 1 -9 80 -24 66 -40 163 -28 175 9 8 49 -81 78 -172 16 -51 32 -83
40 -83 18 0 19 -11 -21 151 -25 98 -33 145 -26 157 8 14 13 9 29 -28 22 -52
87 -255 102 -317 7 -28 16 -43 26 -43 22 0 15 48 -25 175 -17 55 -33 111 -35
125 -2 14 -9 39 -16 55 -14 35 -25 95 -17 95 3 0 17 -23 32 -51z m-5138 -63
c-4 -23 -20 -84 -37 -136 -18 -52 -40 -126 -50 -165 -10 -38 -25 -96 -34 -128
-9 -32 -16 -67 -16 -77 0 -11 -5 -20 -11 -20 -5 0 -8 -3 -6 -8 3 -4 -8 -72
-25 -152 -31 -153 -57 -292 -84 -452 -17 -98 -24 -109 -56 -84 -16 12 -16 20
7 137 14 68 32 147 40 176 8 28 24 94 34 145 28 134 168 641 197 712 14 34 22
71 19 83 -4 18 -2 21 11 16 13 -5 15 -15 11 -47z m63 -25 c0 -10 -14 -72 -31
-137 -17 -66 -32 -126 -34 -134 -20 -88 -37 -159 -44 -180 -10 -29 -29 -119
-36 -173 -3 -20 0 -45 6 -55 9 -14 7 -27 -9 -58 -32 -63 -92 -291 -107 -403
-6 -52 -26 -101 -40 -101 -22 0 -22 20 -5 100 10 41 25 111 34 155 46 226 89
411 96 420 4 6 13 37 20 70 18 93 61 249 71 260 5 5 9 21 9 36 0 16 12 65 26
111 15 46 27 89 27 96 0 6 4 12 9 12 4 0 8 -9 8 -19z m-170 -79 c0 -4 -24 -93
-54 -197 -30 -105 -68 -253 -86 -330 -17 -77 -38 -167 -46 -200 -15 -66 -61
-306 -66 -344 l-3 -24 -30 25 c-23 20 -27 29 -18 39 6 8 22 68 37 134 42 195
111 470 154 615 22 74 43 151 47 170 13 62 65 151 65 112z m2113 -48 c37 -9
67 -21 67 -27 0 -10 -76 -86 -230 -228 -166 -153 -349 -334 -361 -356 -10 -18
-10 -26 -1 -35 7 -7 12 -18 12 -25 0 -18 -37 -16 -44 3 -4 9 -11 12 -18 7 -7
-4 -19 -8 -27 -8 -9 0 -20 -19 -27 -49 -17 -67 -31 -78 -40 -30 -8 49 -17 59
-128 144 -50 39 -112 87 -137 108 -25 20 -81 65 -125 100 -144 114 -283 237
-283 252 -1 19 36 80 48 80 5 0 13 -10 16 -21 6 -18 13 -20 41 -16 24 4 40 0
60 -15 22 -18 30 -19 46 -9 22 14 38 7 38 -18 0 -27 12 -33 32 -14 15 13 23
14 43 5 14 -7 28 -18 31 -26 4 -11 11 -12 34 -3 25 10 33 8 54 -12 19 -17 32
-22 51 -17 l25 6 -22 24 c-28 29 -52 38 -66 24 -7 -7 -12 -4 -16 10 -5 15 -18
21 -54 25 -59 6 -174 48 -180 66 -5 16 45 8 92 -15 16 -8 41 -14 56 -14 14 0
35 -6 46 -14 11 -9 30 -12 47 -9 16 3 27 1 27 -6 0 -6 12 -11 28 -11 15 0 56
-9 91 -20 60 -19 101 -19 101 0 0 4 -12 11 -27 15 -15 3 -53 19 -84 35 -66 32
-154 60 -196 60 -15 0 -37 7 -47 15 -19 15 -19 15 4 15 13 0 37 -4 54 -9 100
-31 301 -74 420 -91 44 -7 85 -14 93 -17 7 -3 13 0 13 5 0 12 -147 62 -180 62
-18 0 -20 4 -14 23 3 12 8 23 9 25 2 2 112 -14 275 -42 46 -8 94 -12 105 -10
11 2 40 -3 65 -11 63 -20 92 -24 113 -13 23 12 22 39 -4 72 -25 31 -19 32 74
10z m627 -139 c35 -36 34 -59 -1 -37 -16 10 -20 10 -24 -1 -8 -20 0 -54 17
-74 23 -26 38 -59 31 -67 -11 -11 -23 -6 -17 7 2 7 -9 26 -26 42 -32 31 -31
31 -113 -12 -35 -19 -40 -14 -70 63 l-24 60 71 -2 c73 -3 106 11 106 43 0 21
14 15 50 -22z m-3023 -379 c-42 -179 -54 -240 -63 -326 -3 -30 -9 -70 -13 -89
-6 -33 -7 -33 -24 -16 -14 14 -17 27 -12 59 11 65 70 321 86 374 11 35 34 34
26 -2z m2956 -263 c30 -68 88 -277 117 -417 23 -112 24 -126 10 -126 -5 0 -10
9 -10 20 0 11 -4 20 -8 20 -11 0 -32 -44 -33 -68 0 -10 -5 -5 -11 11 -9 24 -7
34 11 58 11 15 21 34 21 42 0 34 -50 48 -92 26 -19 -10 -20 -9 -14 17 3 16 9
51 12 77 7 47 6 48 -25 60 -31 11 -32 14 -27 48 6 40 -5 57 -44 61 -29 4 -33
-7 -67 -197 -6 -34 -10 -41 -19 -32 -8 7 11 118 37 220 11 43 17 82 14 88 -11
17 -52 9 -68 -13 -14 -21 -14 -18 -2 35 14 65 19 72 56 80 19 5 34 -1 62 -24
20 -17 37 -39 37 -49 0 -21 15 -34 30 -25 5 3 2 21 -9 43 -11 20 -22 52 -26
70 -11 55 19 39 48 -25z m3127 -33 c6 -11 8 -25 5 -30 -4 -6 8 -51 24 -102 17
-50 30 -92 29 -93 -2 -1 -23 -7 -48 -14 -43 -12 -134 -46 -210 -78 -107 -45
-277 -148 -310 -188 -16 -20 -22 -19 -50 7 -22 20 -23 21 -16 3 4 -11 8 -23 9
-26 1 -3 -22 -27 -51 -54 l-52 -47 -16 38 c-26 62 -86 154 -100 154 -26 0 -14
32 24 66 58 50 223 158 289 189 32 15 111 53 176 86 93 48 226 99 279 108 4 0
12 -8 18 -19z m-6335 -166 c14 -22 15 -34 6 -88 -6 -35 -11 -79 -11 -99 0 -45
-20 -49 -55 -11 -35 38 -39 60 -17 89 11 14 23 42 26 62 15 82 23 89 51 47z
m6406 -266 c-2 -116 -2 -122 -12 -135 -15 -17 -29 -73 -19 -73 5 0 8 -15 8
-32 -1 -18 -3 -27 -5 -20 -8 21 -31 13 -45 -15 -7 -15 -28 -37 -45 -48 -18
-11 -35 -28 -38 -37 -3 -10 -23 -22 -43 -28 -32 -9 -39 -8 -54 10 -23 28 -38
25 -38 -8 0 -16 -7 -37 -15 -48 -15 -19 -15 -19 -30 0 -8 11 -15 30 -15 43 0
28 -26 93 -37 93 -4 0 -8 -30 -8 -67 0 -99 -19 -91 -44 18 -21 89 -34 119 -52
119 -14 0 -11 -51 6 -106 16 -52 19 -94 8 -94 -4 0 -17 10 -30 22 -18 17 -23
32 -23 72 0 28 -5 69 -11 91 -11 39 -10 40 27 72 61 51 264 168 341 197 21 8
65 25 98 40 34 14 64 21 69 16 4 -4 8 -41 7 -82z m-6065 21 c38 -18 45 -26 40
-43 -4 -12 -9 -48 -12 -81 -4 -33 -8 -62 -10 -64 -2 -2 -19 4 -38 14 l-33 18
0 89 c0 48 1 88 3 88 3 0 25 -10 50 -21z m5238 -534 c-1 -45 -7 -88 -23 -155
-6 -25 -12 -61 -15 -80 -7 -55 -24 -133 -35 -162 -7 -19 -15 -26 -26 -22 -9 4
-13 14 -11 23 3 9 12 61 21 116 8 55 22 134 30 175 7 41 17 92 20 113 5 29 10
37 23 35 13 -3 17 -13 16 -43z m-3822 -348 c29 -13 58 -30 65 -38 11 -14 28
-189 17 -189 -3 0 -19 7 -35 16 -49 25 -45 9 4 -20 42 -24 64 -52 52 -65 -4
-3 -18 2 -33 11 -15 10 -41 25 -59 34 -27 15 -32 24 -39 73 -5 31 -9 65 -9 76
0 11 -5 29 -11 40 -18 31 -27 85 -15 85 6 0 34 -11 63 -23z m185 -102 c48 -28
53 -33 58 -75 3 -25 8 -57 10 -71 l4 -26 -55 22 c-31 12 -59 27 -64 31 -12 12
-25 158 -14 153 5 -2 32 -18 61 -34z m658 -792 c33 -2 71 -3 85 -3 71 2 113 1
200 -4 52 -3 112 -7 133 -8 21 -1 40 -5 43 -10 4 -7 -110 -11 -276 -10 -103 0
-290 14 -322 24 -59 17 -46 31 20 22 31 -4 84 -9 117 -11z m1226 -61 c10 -19
23 -26 44 -27 25 0 37 -11 81 -75 47 -66 53 -81 53 -127 1 -44 6 -58 34 -90
44 -52 58 -62 85 -63 17 0 22 -6 22 -25 0 -16 -6 -25 -15 -25 -8 0 -15 -4 -15
-10 0 -17 -21 -11 -68 21 -25 17 -53 28 -63 26 -10 -3 -37 2 -61 10 -28 9 -58
12 -90 8 -37 -5 -48 -4 -48 7 -1 32 -17 37 -163 44 -115 5 -147 4 -147 -6 0
-9 -4 -9 -12 -3 -7 6 -26 9 -43 7 -16 -2 -241 -5 -500 -7 -258 -3 -494 -8
-523 -12 -58 -8 -77 -30 -65 -75 6 -23 6 -23 -78 -16 -107 8 -109 8 -109 15 0
16 42 71 54 71 17 0 69 58 92 103 9 17 37 54 60 81 24 26 44 54 44 62 0 7 11
21 25 30 32 21 28 34 -16 50 -19 7 -26 13 -16 13 10 1 28 -4 40 -11 28 -15
128 -21 342 -20 192 2 296 9 309 23 6 5 20 9 33 9 13 0 23 4 23 9 0 5 10 9 23
9 90 -2 317 6 442 16 186 14 207 12 226 -22z"/>
<path d="M6074 2768 c-23 -24 -74 -83 -114 -133 -40 -49 -75 -89 -77 -87 -2 1
-18 -23 -35 -55 -17 -32 -96 -145 -177 -252 -165 -218 -178 -238 -163 -253 7
-7 21 4 44 37 18 27 66 91 106 144 40 53 140 188 222 301 82 113 174 231 204
264 31 32 56 63 56 67 0 21 -29 6 -66 -33z"/>
<path d="M6059 2478 c-129 -156 -243 -311 -361 -493 -71 -110 -83 -133 -74
-142 9 -9 23 8 144 182 195 279 246 350 307 429 34 45 68 92 74 104 28 53 -1
27 -90 -80z"/>
<path d="M4517 9252 c-38 -59 -196 -748 -179 -779 13 -22 7 -40 76 282 13 61
45 190 70 288 43 161 56 245 33 209z"/>
<path d="M4601 9217 c-22 -27 -171 -633 -171 -697 0 -41 19 -18 30 38 17 82
85 353 131 519 21 79 39 145 39 148 0 10 -18 5 -29 -8z"/>
<path d="M5718 9138 c-32 -27 -258 -455 -258 -489 0 -5 6 -9 14 -9 9 0 38 46
69 109 59 118 154 286 193 340 13 19 24 40 24 47 0 17 -21 18 -42 2z"/>
<path d="M7224 8448 c-30 -24 -223 -222 -288 -294 -36 -41 -48 -84 -23 -84 6
0 25 21 41 46 16 25 96 114 178 196 81 83 148 152 148 154 0 11 -31 1 -56 -18z"/>
<path d="M5710 8432 c0 -5 -13 -7 -29 -4 -33 5 -106 -29 -120 -57 -11 -20 -9
-100 3 -119 4 -7 14 -12 22 -12 8 0 14 -9 14 -19 0 -30 29 -55 46 -40 11 9 18
8 30 -2 19 -16 204 -22 204 -8 0 5 9 9 20 9 12 0 29 15 45 41 24 36 25 44 14
77 -6 20 -17 42 -23 47 -7 6 -18 20 -25 32 -18 36 -82 63 -146 63 -30 0 -55
-4 -55 -8z"/>
<path d="M3122 8385 c-67 -19 -106 -48 -136 -102 -35 -62 -41 -99 -21 -129 14
-22 22 -25 50 -20 19 4 36 2 40 -4 8 -13 82 -13 90 0 3 6 17 10 29 10 13 0 29
7 36 15 7 8 20 15 30 15 20 0 70 37 70 52 0 6 7 16 15 22 8 6 17 25 21 42 9
45 -32 89 -88 97 -24 3 -52 8 -63 11 -11 3 -44 -1 -73 -9z"/>
<path d="M5996 7913 c-2 -2 -32 -6 -67 -8 -35 -3 -86 -10 -114 -16 -52 -11
-270 -108 -316 -141 -15 -10 -35 -21 -45 -26 -47 -19 -136 -87 -216 -165 -49
-47 -88 -83 -88 -79 0 4 -8 -8 -18 -25 -26 -49 -108 -185 -129 -213 -10 -14
-17 -28 -16 -32 2 -4 -6 -27 -17 -52 -19 -45 -72 -281 -72 -323 -1 -26 -10
-29 -27 -9 -17 20 -117 62 -201 84 -133 34 -435 18 -555 -31 -27 -11 -60 -19
-71 -19 -12 1 -29 -7 -39 -18 -10 -11 -24 -20 -30 -20 -7 0 -24 -9 -38 -20
-14 -11 -27 -20 -30 -20 -2 0 -3 28 -1 63 1 34 -2 82 -8 107 -5 25 -12 70 -14
100 -8 91 -121 297 -223 406 -87 93 -114 115 -147 119 -25 2 -61 30 -96 72
-29 34 -147 108 -213 133 -33 12 -98 33 -145 46 -47 13 -85 24 -85 24 0 1 -13
4 -30 7 -78 15 -300 -5 -350 -31 -18 -10 -34 -12 -45 -6 -9 5 -34 4 -60 -2
-57 -14 -303 -134 -326 -159 -9 -10 -22 -19 -27 -19 -40 0 -229 -164 -283
-245 -18 -27 -51 -76 -73 -107 -22 -31 -43 -69 -47 -85 -4 -15 -13 -37 -20
-48 -11 -17 -23 -57 -41 -130 -10 -41 -33 -171 -35 -197 -1 -16 -2 -28 -3 -28
-80 26 -109 28 -156 13 -28 -9 -55 -25 -60 -35 -5 -10 -7 -18 -3 -18 3 0 1 -6
-5 -14 -21 -26 -16 -111 10 -145 32 -43 49 -45 114 -16 32 14 63 25 70 25 14
0 34 -71 40 -141 2 -25 11 -73 20 -108 19 -74 111 -257 157 -312 80 -97 172
-188 201 -200 18 -7 39 -20 48 -28 30 -29 59 -51 59 -45 0 4 10 -6 21 -21 16
-20 28 -26 47 -22 18 3 26 0 29 -14 5 -18 35 -31 103 -45 19 -3 69 -20 110
-36 41 -17 84 -31 95 -33 34 -4 65 -17 65 -27 0 -6 7 -5 15 2 8 7 15 9 15 6 0
-4 9 -2 19 3 28 15 45 -10 37 -53 -4 -22 -2 -37 5 -42 14 -8 29 13 29 42 0 26
38 76 51 69 5 -4 9 -20 9 -36 0 -24 4 -30 18 -27 12 3 17 13 16 36 -2 33 3 37
30 26 11 -4 16 -19 16 -49 0 -78 38 -62 48 20 4 35 9 45 23 45 14 0 19 -7 19
-26 0 -14 5 -34 11 -45 17 -32 39 -5 39 47 0 32 4 44 15 44 8 0 15 5 15 12 0
25 16 -6 25 -50 7 -31 16 -48 28 -50 14 -3 17 5 17 52 0 52 2 56 33 73 17 9
34 18 37 18 51 12 100 32 132 56 23 16 54 29 70 29 36 0 95 30 126 63 13 14
37 31 53 37 16 7 42 33 58 59 29 46 51 72 160 188 61 65 108 144 95 164 -3 6
-1 15 6 19 8 5 14 26 15 47 0 21 4 44 8 50 4 6 7 22 6 34 -1 39 16 122 31 145
7 12 34 32 58 45 25 13 68 36 96 51 122 65 312 99 446 80 150 -20 339 -112
363 -175 5 -12 14 -56 22 -97 23 -139 105 -322 215 -485 59 -86 72 -99 168
-152 111 -62 292 -153 300 -151 4 1 25 -3 47 -10 132 -37 260 -62 338 -64 48
-1 87 -4 87 -7 0 -3 7 -14 15 -25 13 -18 15 -18 44 3 21 15 38 20 55 15 14 -3
76 2 138 12 97 16 127 25 217 71 111 56 134 64 108 35 -28 -30 -20 -49 8 -22
14 13 25 28 25 34 0 7 17 20 37 31 21 11 51 32 68 46 16 14 55 42 85 61 57 37
105 80 203 186 33 34 65 62 73 62 8 0 14 8 14 18 0 9 14 44 30 77 16 33 30 67
30 75 0 9 6 24 14 35 7 11 16 40 19 65 4 25 11 65 17 90 7 25 14 62 17 83 6
46 41 69 73 49 11 -6 25 -9 33 -6 7 2 31 -7 52 -21 38 -26 38 -26 64 -8 37 27
73 101 60 124 -5 10 -7 29 -4 41 7 27 -24 80 -59 103 -38 25 -190 20 -207 -7
-6 -10 -27 90 -27 127 2 102 -41 217 -129 347 -29 43 -63 99 -77 126 -24 47
-95 122 -186 197 -25 20 -57 49 -72 64 -14 14 -77 52 -140 83 -87 45 -128 59
-176 64 -34 4 -62 11 -62 15 0 5 -14 9 -31 9 -16 0 -60 7 -97 15 -57 13 -297
27 -306 18z m356 -154 c42 -7 72 -17 83 -29 9 -10 23 -16 30 -14 7 3 41 -6 76
-20 48 -20 65 -23 71 -14 6 10 8 9 8 -3 0 -9 11 -21 25 -27 15 -7 25 -20 25
-32 0 -21 4 -24 53 -34 15 -4 60 -37 100 -74 39 -37 84 -76 100 -85 20 -13 26
-23 22 -40 -4 -17 8 -39 52 -90 49 -58 58 -66 65 -50 6 13 7 10 3 -9 -3 -17 6
-59 25 -109 16 -46 30 -100 30 -121 0 -22 6 -51 14 -66 8 -16 16 -71 19 -127
3 -55 6 -102 7 -105 6 -15 -3 -96 -11 -104 -5 -6 -9 -21 -9 -35 0 -51 -43
-172 -72 -203 -15 -16 -28 -37 -28 -46 0 -8 -10 -29 -23 -46 -13 -17 -29 -45
-36 -63 -7 -18 -21 -35 -31 -38 -10 -3 -28 -20 -40 -38 -23 -33 -102 -100
-149 -127 -15 -8 -36 -24 -48 -35 -21 -19 -148 -86 -187 -99 -14 -5 -16 -9 -7
-20 8 -9 8 -16 2 -20 -5 -4 -13 3 -16 14 -5 15 -10 18 -19 11 -40 -33 -244
-79 -361 -81 -221 -4 -307 7 -475 61 -172 56 -198 69 -258 131 -103 106 -122
123 -134 123 -7 1 -12 6 -10 13 1 7 -3 12 -10 12 -6 0 -8 3 -5 7 4 3 -4 20
-17 37 -13 17 -39 63 -59 102 -19 38 -42 76 -51 83 -8 7 -29 58 -47 114 -28
87 -33 120 -35 221 -2 65 0 124 3 130 4 6 6 23 4 39 -3 29 41 202 64 252 8 17
20 46 28 65 8 20 34 60 59 90 24 30 55 71 69 91 34 50 146 169 159 169 16 0
98 48 145 85 60 47 187 113 242 126 26 6 57 13 68 15 11 3 38 7 60 10 22 3 58
9 80 13 47 10 252 4 347 -10z m-3608 -18 c3 -4 38 -9 78 -10 40 -1 91 -6 112
-12 22 -6 60 -15 85 -19 159 -30 288 -87 360 -159 20 -20 52 -47 73 -61 20
-13 44 -37 53 -53 9 -15 27 -33 40 -39 42 -19 146 -199 186 -320 48 -147 63
-240 55 -348 -9 -137 -12 -152 -30 -185 -9 -16 -16 -37 -16 -46 0 -18 -80
-221 -90 -229 -3 -3 -18 -31 -33 -63 -19 -39 -38 -64 -61 -78 -19 -11 -42 -31
-50 -44 -9 -14 -31 -32 -49 -40 -17 -8 -59 -38 -92 -66 -85 -71 -179 -117
-355 -169 -77 -24 -104 -28 -225 -36 -152 -10 -190 -9 -212 4 -12 8 -28 12
-35 10 -18 -6 -106 23 -274 90 -96 38 -157 88 -265 215 -12 15 -29 25 -36 23
-7 -3 -13 2 -13 11 0 10 -34 87 -76 172 -42 85 -78 168 -80 185 -2 17 -7 54
-10 81 -4 28 -9 52 -13 55 -12 9 -13 100 -2 187 6 49 13 107 15 130 3 23 14
63 25 89 12 26 21 52 21 58 1 72 208 337 329 419 31 21 67 49 81 62 29 27 217
125 240 125 8 0 36 11 61 24 32 18 49 22 57 14 6 -6 16 -7 24 -2 7 5 33 14 58
20 60 15 58 15 64 5z"/>
<path d="M6115 7609 c-33 -4 -87 -10 -119 -14 -33 -3 -89 -17 -124 -31 -35
-15 -69 -27 -75 -28 -58 -11 -191 -98 -262 -171 -63 -64 -154 -196 -154 -221
1 -10 -7 -39 -16 -63 -39 -105 -49 -174 -49 -314 1 -120 4 -142 21 -165 10
-15 29 -59 41 -98 13 -39 31 -79 42 -89 11 -10 25 -37 32 -59 7 -26 28 -58 57
-86 25 -25 51 -54 56 -63 6 -10 17 -19 25 -21 37 -6 96 -39 120 -66 23 -26 90
-58 195 -91 49 -15 153 -20 161 -7 4 5 21 7 39 4 24 -5 38 -2 49 10 11 11 21
13 29 6 7 -5 41 -7 77 -5 36 2 86 3 112 3 26 0 50 5 53 10 3 6 15 10 26 10 11
0 31 11 45 25 18 18 32 24 46 19 13 -4 28 2 43 16 13 13 30 20 38 17 25 -9 72
28 111 90 22 32 56 71 77 87 34 23 39 33 39 65 0 25 8 49 23 67 15 20 23 44
24 79 1 39 15 191 24 260 4 33 -16 179 -31 225 -60 184 -207 420 -262 420 -5
0 -44 22 -87 50 -42 27 -95 57 -116 65 -22 9 -58 24 -80 34 -40 19 -136 42
-158 39 -7 0 -39 -5 -72 -9z m316 -247 c83 -38 124 -87 134 -159 8 -68 -17
-127 -74 -172 -32 -26 -47 -32 -68 -26 -15 3 -29 2 -33 -5 -4 -6 -40 -14 -81
-17 -144 -10 -219 44 -219 157 0 126 55 222 136 235 21 3 48 10 59 14 32 13
75 5 146 -27z m187 -458 c17 -18 32 -41 32 -50 0 -23 -76 -94 -100 -94 -11 0
-35 7 -54 17 -74 35 -69 119 8 154 50 22 71 17 114 -27z"/>
<path d="M2860 7547 c-3 -3 -37 -6 -75 -7 -39 -1 -99 -7 -134 -13 -51 -9 -65
-15 -72 -34 -5 -13 -15 -23 -23 -23 -8 0 -52 -26 -98 -57 -203 -139 -302 -228
-314 -283 -3 -14 -19 -59 -34 -100 -35 -90 -47 -150 -31 -150 6 0 11 -5 11
-11 0 -5 -4 -8 -9 -4 -5 3 -12 1 -15 -3 -8 -14 -10 -263 -2 -302 10 -52 49
-214 53 -219 1 -2 9 2 17 8 12 10 18 7 32 -16 46 -75 70 -106 115 -148 26 -25
54 -45 62 -45 8 0 19 -11 25 -25 12 -27 27 -32 38 -14 4 7 16 2 33 -14 28 -27
123 -70 181 -82 19 -4 44 -12 55 -18 26 -15 76 -17 98 -5 12 6 29 5 53 -4 29
-10 37 -10 43 1 6 9 36 15 91 17 57 2 87 8 99 18 12 11 28 14 47 10 22 -4 40
2 74 25 25 17 49 31 54 31 25 0 207 170 247 229 16 25 35 63 41 86 6 22 17 47
24 55 12 16 14 25 37 155 16 90 15 249 -2 313 -7 23 -9 47 -6 52 8 13 -29 128
-61 191 -36 73 -71 109 -106 109 -28 0 -29 2 -23 30 6 25 1 35 -41 74 -26 25
-68 55 -93 67 -25 11 -58 27 -74 35 -57 31 -175 65 -242 71 -38 3 -72 3 -75 0z
m438 -253 c18 -8 32 -20 32 -26 0 -5 10 -23 23 -38 19 -22 24 -40 25 -94 2
-64 1 -67 -36 -104 -71 -71 -186 -96 -273 -59 -55 23 -73 50 -77 120 -3 58 -1
66 38 123 40 62 41 62 105 73 35 6 75 9 89 5 13 -3 27 -1 30 5 9 14 7 14 44
-5z"/>
<path d="M4343 6565 c-34 -7 -72 -19 -85 -25 -33 -17 -78 -61 -78 -76 0 -7 41
-54 90 -105 l90 -91 1 -57 c1 -31 3 -89 4 -130 3 -136 -5 -151 -140 -284 -79
-78 -79 -79 -64 -105 31 -56 93 -28 214 97 27 28 54 51 60 51 6 0 37 -27 70
-61 70 -71 136 -119 162 -119 21 0 63 34 63 51 0 6 -21 30 -47 52 -191 168
-194 173 -202 362 -6 136 -6 141 17 176 13 20 52 57 86 82 34 25 68 57 76 71
12 23 11 28 -4 45 -26 28 -111 62 -169 67 -28 2 -58 6 -67 8 -8 2 -43 -2 -77
-9z"/>
<path d="M7923 4568 c-23 -23 -93 -80 -155 -128 -76 -58 -113 -92 -113 -105 0
-33 38 -29 86 7 24 19 76 54 114 79 131 86 181 142 155 174 -20 24 -43 17 -87
-27z"/>
<path d="M8920 4142 c-14 -2 -29 -8 -34 -13 -6 -5 -26 -9 -45 -9 -97 0 -251
-69 -388 -174 -51 -38 -93 -75 -93 -81 0 -6 -15 -25 -32 -41 -33 -30 -88 -93
-88 -100 0 -3 -28 -46 -84 -129 -11 -16 -19 -40 -18 -53 1 -12 -5 -25 -13 -28
-9 -4 -20 -26 -26 -50 -6 -24 -15 -44 -20 -44 -5 0 -9 -5 -9 -10 0 -6 -9 -23
-20 -38 -24 -32 -54 -137 -46 -159 6 -15 -5 -42 -27 -65 -18 -19 -87 -156 -87
-174 0 -8 10 -36 22 -62 21 -46 24 -53 27 -70 0 -5 12 -14 25 -20 l25 -11 -19
-50 c-17 -47 -20 -104 -6 -118 8 -9 8 -48 -1 -57 -9 -9 -4 -88 7 -101 5 -6 4
-30 -1 -55 -6 -24 -7 -55 -4 -68 4 -16 -4 -41 -25 -78 -17 -30 -30 -68 -30
-88 0 -18 -7 -39 -16 -47 -9 -7 -29 -32 -45 -56 -17 -24 -36 -43 -42 -43 -7 0
-18 -13 -24 -30 -9 -23 -17 -30 -38 -30 -14 0 -41 -11 -58 -24 -18 -13 -58
-36 -91 -51 -50 -24 -75 -28 -175 -33 -70 -3 -127 -10 -143 -19 -16 -7 -28
-11 -28 -8 0 3 -9 1 -20 -5 -12 -6 -20 -21 -20 -36 0 -14 -4 -33 -10 -43 -12
-24 -41 -147 -45 -191 -1 -19 -6 -44 -10 -55 -4 -11 -19 -46 -32 -78 -13 -33
-22 -66 -20 -75 2 -10 -3 -30 -10 -45 -8 -15 -16 -52 -19 -80 l-5 -53 33 1
c37 2 68 -10 68 -26 0 -6 -24 -9 -60 -8 -66 3 -84 -6 -56 -26 10 -8 15 -19 11
-25 -11 -19 16 -40 51 -40 19 0 34 5 34 10 0 25 39 6 76 -38 27 -31 68 -61
118 -87 l77 -40 19 22 c26 33 15 59 -42 96 l-49 32 48 3 c26 2 55 9 63 16 20
17 41 24 96 32 33 4 44 3 40 -5 -4 -6 -16 -11 -27 -11 -14 0 -19 -7 -19 -28 0
-45 19 -60 90 -72 84 -13 216 -13 241 0 21 12 26 45 7 56 -6 4 -34 9 -62 10
-89 4 -153 15 -172 29 -11 7 -16 16 -13 20 4 3 54 10 112 14 88 7 111 13 143
34 41 29 51 27 64 -9 11 -29 31 -30 108 -8 46 14 62 14 90 4 48 -17 191 -4
244 24 48 24 55 37 34 59 -12 12 -36 14 -123 10 l-108 -4 50 29 c212 122 251
145 261 153 6 5 20 10 31 12 11 1 33 13 49 25 115 88 169 128 242 178 51 36
82 64 82 75 0 24 -37 44 -53 30 -20 -16 -67 -31 -67 -22 0 17 82 92 95 87 17
-6 82 64 159 171 32 45 76 93 97 107 65 44 189 156 205 188 14 27 14 31 -2 49
-26 28 -59 23 -103 -16 -21 -19 -41 -35 -45 -35 -17 0 -2 27 36 63 50 48 134
172 194 287 25 47 58 108 74 135 43 71 150 292 150 309 0 8 -9 21 -20 29 -20
14 -20 15 12 115 28 85 33 115 32 189 -3 139 -2 137 -17 124 -16 -12 -14 -18
-23 96 -6 71 -9 82 -27 87 -12 3 -27 0 -34 -6 -8 -6 -15 -9 -17 -7 -2 2 -18
41 -36 87 -41 108 -120 211 -120 158 0 -35 -20 -23 -44 26 -37 78 -44 84 -157
134 -90 40 -114 46 -179 48 -41 1 -86 0 -100 -2z m226 -121 c23 -11 47 -29 53
-40 7 -12 22 -21 35 -21 12 0 25 -2 28 -6 8 -7 -67 -174 -195 -434 -106 -216
-170 -358 -209 -460 -12 -30 -31 -70 -44 -89 -13 -19 -21 -38 -18 -43 3 -4 -2
-11 -11 -15 -10 -3 -21 0 -26 8 -14 22 -11 28 11 22 24 -6 25 -1 5 37 -14 27
-13 34 4 77 35 91 76 179 197 423 66 135 133 278 149 319 16 41 39 90 51 109
25 36 22 62 -7 62 -18 0 -52 -49 -55 -80 -1 -8 -13 -39 -28 -69 -14 -30 -26
-60 -26 -67 0 -7 -43 -99 -96 -205 -126 -254 -160 -326 -196 -429 -16 -47 -34
-89 -39 -94 -9 -10 -41 53 -32 66 11 18 -9 48 -32 48 -19 0 -26 -8 -34 -37 -6
-21 -11 -44 -11 -50 0 -7 -4 -13 -10 -13 -11 0 -14 19 -11 66 2 25 -2 33 -21
37 -28 8 -40 -4 -40 -37 0 -15 -6 -26 -13 -26 -26 0 -45 13 -45 30 0 26 103
323 149 429 46 105 48 114 25 109 -18 -4 -157 -350 -188 -470 -24 -92 -40
-114 -65 -84 -8 10 -6 24 9 59 18 41 39 167 28 167 -3 0 -22 -45 -43 -101 -41
-106 -62 -130 -90 -103 -9 9 -14 22 -12 28 54 130 142 364 162 432 15 49 31
93 36 99 5 5 9 15 9 22 0 10 -5 11 -19 4 -17 -10 -33 -43 -77 -166 -16 -45
-18 -47 -27 -27 -20 43 -41 26 -58 -47 -19 -78 -83 -221 -98 -221 -6 0 -11 11
-11 24 0 13 -7 29 -15 36 -22 18 -20 30 32 142 25 57 46 111 45 122 -1 23 17
52 87 141 58 72 71 86 156 160 62 53 186 136 196 129 4 -2 5 -13 2 -24 -8 -30
20 -25 172 33 99 37 200 44 261 18z m183 -115 c7 -9 11 -22 8 -30 -4 -9 4 -21
19 -31 14 -9 40 -40 59 -70 19 -29 39 -57 45 -60 19 -12 -2 -26 -30 -20 -47
10 -75 -37 -281 -474 -81 -173 -155 -321 -164 -330 -13 -13 -17 -14 -24 -2
-15 23 14 97 202 516 25 55 64 143 87 195 23 52 47 98 53 102 9 5 9 10 0 19
-18 18 -43 3 -59 -38 -23 -55 -70 -163 -125 -283 -60 -133 -160 -378 -184
-452 l-18 -56 -34 26 c-18 15 -33 31 -33 36 0 5 31 72 69 150 39 78 95 199
126 269 31 71 60 136 65 145 69 129 170 362 170 393 0 26 2 28 18 20 10 -5 24
-17 31 -25z m112 -361 c20 -44 29 -79 29 -114 l0 -51 -37 3 c-34 2 -39 -1 -55
-33 -9 -19 -44 -89 -76 -155 -33 -66 -101 -200 -151 -298 -50 -97 -91 -184
-91 -192 0 -28 -18 -15 -30 21 -16 47 -3 90 50 173 50 77 130 221 230 413 42
81 87 156 101 167 18 15 21 22 13 31 -14 14 -57 4 -49 -11 4 -5 -14 -34 -39
-65 -25 -31 -46 -60 -46 -64 0 -12 -42 -82 -46 -77 -2 2 7 27 21 55 14 29 25
55 25 59 -1 19 105 211 113 206 5 -3 22 -34 38 -68z m-19 -292 c0 -65 -4 -83
-15 -83 -6 0 -5 -5 1 -12 11 -14 -22 -138 -37 -138 -9 0 10 64 22 76 4 4 7 16
7 26 0 28 -29 21 -36 -9 -8 -33 -107 -198 -140 -233 -13 -14 -35 -55 -50 -90
-62 -152 -102 -207 -106 -144 -2 22 117 266 216 444 38 69 80 149 93 179 29
64 46 58 45 -16z m-59 -320 c-15 -58 -98 -233 -116 -244 -5 -4 -6 -12 -3 -18
4 -6 3 -11 -3 -11 -6 0 -15 -9 -21 -20 -9 -16 -8 -18 5 -14 8 4 15 1 15 -5 0
-12 -58 -131 -63 -131 -2 0 -1 14 1 31 4 29 3 31 -19 27 -13 -3 -33 -9 -43
-13 -17 -7 -18 -5 -12 21 12 45 250 434 267 434 4 0 0 -26 -8 -57z"/>
<path d="M9055 3843 c-45 -52 -111 -140 -122 -163 -3 -8 -17 -28 -29 -45 -29
-39 -170 -332 -195 -403 -40 -117 -16 -107 36 15 83 193 178 377 251 485 42
62 85 121 95 131 20 19 24 27 12 27 -5 -1 -26 -22 -48 -47z"/>
<path d="M8832 3797 c-5 -6 -21 -39 -35 -72 -14 -33 -58 -134 -100 -225 -67
-149 -127 -300 -127 -322 0 -4 5 -8 11 -8 11 0 27 34 114 240 31 74 81 186
111 247 30 62 54 119 54 127 0 21 -16 28 -28 13z"/>
<path d="M8890 913 c-17 -14 -30 -33 -30 -43 0 -10 -4 -20 -9 -22 -12 -4 -24
-83 -16 -108 17 -53 74 -42 148 28 50 49 50 99 0 161 -12 16 -67 6 -93 -16z"/>
<path d="M7559 743 c-1 -5 -1 -12 0 -16 1 -5 -3 -6 -8 -2 -11 6 -40 -44 -52
-90 -4 -16 -11 -39 -14 -51 -6 -20 15 -54 35 -54 17 0 70 52 70 68 0 10 7 30
16 47 18 35 11 90 -12 99 -21 8 -34 8 -35 -1z"/>
<path d="M9384 336 c-42 -23 -42 -23 -59 -3 -15 18 -27 19 -130 15 -73 -3
-119 -9 -129 -17 -19 -16 -21 -55 -3 -69 14 -11 244 -6 278 7 15 5 32 3 48 -6
34 -17 62 -17 88 2 31 22 35 52 10 75 -27 25 -52 24 -103 -4z"/>
<path d="M5400 60 c0 -3 -42 -5 -93 -4 -50 1 -100 -3 -110 -8 -12 -6 -23 -6
-31 1 -7 6 -16 7 -20 3 -4 -4 -35 -8 -69 -9 -263 -8 -393 -17 -507 -32 -48 -7
5 -9 200 -9 146 0 273 4 282 9 11 6 18 5 21 -4 4 -9 8 -9 15 2 7 10 11 10 17
1 6 -9 10 -9 16 1 8 12 11 11 19 -1 9 -13 11 -13 19 -1 6 9 30 15 63 17 150 8
288 23 288 33 0 3 -25 6 -55 6 -30 0 -55 -2 -55 -5z"/>
</g>
</svg>
