<?xml version="1.0" standalone="no"?>
<!DOCTYPE svg PUBLIC "-//W3C//DTD SVG 20010904//EN"
 "http://www.w3.org/TR/2001/REC-SVG-20010904/DTD/svg10.dtd">
<svg version="1.0" xmlns="http://www.w3.org/2000/svg"
 width="512.000000pt" height="512.000000pt" viewBox="0 0 512.000000 512.000000"
 preserveAspectRatio="xMidYMid meet">
<metadata>
Created by potrace 1.16, written by Peter Selinger 2001-2019
</metadata>
<g transform="translate(0.000000,512.000000) scale(0.100000,-0.100000)"
fill="#000000" stroke="none">
<path d="M651 4759 c-38 -18 -81 -57 -103 -93 -3 -6 -9 -60 -13 -121 -4 -60
-9 -112 -10 -115 -2 -3 -6 -43 -10 -90 -3 -47 -10 -123 -15 -170 -5 -47 -12
-148 -15 -225 -4 -77 -8 -158 -10 -180 -2 -22 -7 -94 -10 -160 -4 -66 -8 -133
-10 -150 -2 -16 -7 -205 -10 -420 -7 -390 -2 -497 28 -663 10 -52 10 -75 3
-77 -43 -14 -96 -27 -126 -31 -19 -3 -39 -9 -45 -15 -5 -5 -19 -9 -31 -9 -31
0 -74 -37 -74 -65 0 -69 39 -96 108 -77 35 10 157 46 195 59 13 4 17 0 17 -16
0 -12 8 -41 18 -64 10 -23 27 -62 37 -87 10 -25 31 -62 47 -82 15 -20 28 -39
28 -41 0 -3 -45 -38 -101 -78 -56 -41 -106 -79 -112 -84 -7 -6 -37 -28 -67
-50 -73 -52 -130 -111 -130 -133 0 -10 10 -28 22 -40 23 -21 74 -36 80 -24 3
8 189 151 216 167 44 26 80 51 110 77 l33 28 27 -33 c15 -17 45 -54 66 -81 22
-26 64 -72 94 -101 l55 -52 -11 -49 c-6 -27 -11 -78 -11 -114 0 -36 -3 -90 -6
-120 -3 -30 -10 -154 -15 -275 -6 -121 -15 -251 -20 -290 -10 -78 -17 -165
-26 -335 -6 -136 -10 -180 -20 -237 l-7 -43 89 0 89 0 1 28 c2 83 39 442 45
442 5 0 6 -106 4 -235 l-3 -235 68 0 68 0 5 33 c8 42 29 235 29 265 0 12 4 22
9 22 8 0 15 -182 9 -234 -1 -10 1 -34 5 -52 l6 -34 78 0 79 0 6 118 c6 107 16
387 16 456 0 46 10 24 15 -35 5 -48 16 -423 15 -506 l0 -33 74 0 75 0 7 48
c17 117 23 129 21 39 l-2 -87 120 0 120 0 1 28 c2 57 8 128 12 140 7 20 18 14
18 -10 0 -13 1 -53 2 -90 l2 -68 70 0 70 0 1 43 c1 23 3 53 4 67 4 38 17 319
17 365 -1 28 2 35 8 25 8 -14 19 -249 20 -427 l0 -73 80 0 80 0 1 48 c2 184
22 363 27 244 1 -26 6 -99 11 -162 5 -63 7 -118 5 -122 -3 -5 29 -8 70 -8 l76
0 2 30 c0 17 2 48 4 70 1 22 3 52 3 66 1 14 5 23 10 20 4 -3 8 -46 7 -96 l-1
-90 178 0 177 0 0 107 c0 58 3 103 7 99 8 -7 9 -33 12 -153 l1 -53 69 0 c82 0
81 -2 81 117 0 142 16 87 19 -64 l1 -53 159 0 159 0 4 43 c3 23 4 76 2 117 -4
99 11 52 19 -61 4 -46 7 -88 7 -92 0 -4 33 -7 73 -5 l72 3 -3 235 c-3 155 -1
232 6 225 5 -5 13 -64 16 -130 3 -66 9 -168 12 -227 l7 -108 123 0 124 0 1
128 c0 70 0 147 -1 172 -3 71 9 41 15 -36 5 -75 13 -155 21 -221 l5 -43 92 0
92 0 4 33 c3 17 5 115 5 217 0 102 3 172 7 155 9 -34 34 -311 33 -367 l0 -38
93 0 c89 0 93 1 94 23 1 12 0 27 -1 32 -1 6 -4 28 -6 50 -2 22 -6 54 -9 70 -7
45 -14 115 -16 160 -1 22 -8 101 -15 175 -8 74 -16 155 -19 180 -2 25 -7 101
-10 170 -5 117 -13 232 -20 290 -7 67 -15 142 -20 205 -3 39 -8 84 -11 102 -5
28 -2 34 36 59 41 27 43 28 56 9 8 -10 14 -25 14 -32 0 -12 115 -53 151 -53
12 0 16 -5 13 -15 -4 -8 -2 -15 3 -15 7 0 32 -52 39 -82 1 -5 3 -11 4 -15 1
-5 3 -12 4 -18 3 -24 48 -83 68 -88 29 -8 93 29 93 54 0 4 3 10 7 14 11 12
-13 65 -30 65 -10 0 -24 15 -33 33 -8 17 -30 41 -47 52 -17 11 -31 25 -32 31
0 7 -11 15 -25 18 -14 4 -25 11 -25 16 0 6 -5 10 -10 10 -6 0 -21 9 -33 21
-24 23 -99 59 -123 59 -21 0 -18 10 21 64 19 27 35 55 35 63 0 20 17 16 83
-22 136 -78 190 -117 255 -182 47 -47 57 -53 85 -48 41 7 89 57 79 83 -11 28
-176 172 -197 172 -4 0 -28 17 -54 38 -25 21 -59 44 -76 51 -16 6 -38 23 -47
36 -19 25 -19 23 37 150 28 65 35 82 51 133 14 43 20 52 40 52 21 0 81 -23
139 -53 80 -41 137 -14 141 65 2 41 -1 47 -25 58 -28 13 -144 44 -203 54 -45
8 -45 6 -17 139 20 95 22 133 23 552 1 394 -5 645 -18 765 -2 19 -6 73 -9 120
-3 47 -8 115 -11 150 -3 36 -8 112 -12 170 -3 57 -9 110 -15 116 -5 6 -6 13
-3 16 5 6 -15 213 -23 238 -3 8 -5 31 -4 50 4 59 -85 153 -157 166 -42 8 -209
-23 -327 -61 -44 -14 -98 -31 -120 -37 -22 -6 -44 -15 -50 -19 -5 -4 -30 -12
-54 -19 -24 -6 -89 -31 -145 -54 -55 -24 -110 -46 -121 -49 -36 -10 -131 -52
-158 -70 -28 -18 -68 -15 -95 6 -7 6 -50 19 -95 29 -45 10 -91 21 -102 24 -11
3 -78 16 -148 30 -290 55 -563 53 -842 -6 -27 -6 -59 -11 -70 -12 -43 -2 -285
-68 -319 -87 -24 -14 -37 -17 -42 -9 -7 11 -141 76 -209 101 -22 8 -74 29
-115 47 -41 18 -102 41 -135 51 -33 11 -69 23 -80 28 -64 26 -251 81 -285 84
-14 1 -28 6 -31 11 -4 5 -38 10 -75 13 -56 3 -78 -1 -113 -18z m1980 -344 c1
-5 3 -68 4 -140 l3 -130 36 -14 c31 -12 39 -12 60 3 23 14 25 22 24 93 0 179
0 183 22 183 25 0 28 -8 33 -82 6 -72 27 -109 63 -106 42 4 55 35 48 108 -6
62 -6 63 17 56 13 -4 49 -11 79 -17 234 -43 475 -150 705 -312 22 -15 56 -38
75 -51 42 -28 225 -207 260 -254 62 -83 105 -137 112 -140 5 -2 8 -10 8 -17 0
-7 10 -26 23 -42 12 -15 27 -37 34 -48 40 -66 61 -105 77 -145 10 -25 24 -61
33 -80 30 -70 41 -100 49 -135 1 -5 9 -37 18 -70 30 -112 48 -301 41 -430 -5
-101 -36 -300 -49 -312 -1 -2 -35 1 -74 7 -108 15 -479 15 -497 0 -21 -17 -20
-113 1 -134 18 -19 25 -19 95 -5 30 5 110 9 179 8 249 -3 272 -11 236 -80 -7
-14 -16 -38 -20 -54 -10 -38 -75 -155 -86 -155 -12 0 -64 23 -70 31 -11 14
-292 130 -334 138 -56 10 -74 -1 -85 -51 -14 -60 2 -78 94 -105 78 -23 291
-109 309 -124 17 -15 -84 -132 -225 -261 -20 -18 -44 -37 -52 -43 -8 -5 -53
-39 -100 -74 -46 -35 -120 -84 -163 -107 -156 -84 -234 -124 -244 -124 -6 0
-33 -11 -62 -25 -28 -14 -59 -25 -68 -25 -9 0 -20 -4 -26 -9 -27 -28 -388 -99
-544 -107 -215 -11 -317 -5 -538 35 -108 20 -144 28 -237 54 -76 21 -433 180
-445 198 -3 4 -17 13 -30 19 -14 6 -41 22 -60 35 -19 13 -50 35 -68 47 -95 65
-268 222 -339 307 -29 36 -53 68 -53 71 0 7 123 70 137 70 5 0 26 9 48 20 22
11 47 20 57 20 9 0 19 4 22 9 4 5 25 12 49 16 45 8 98 31 109 49 11 16 10 66
-2 66 -5 0 -10 6 -10 14 0 8 -13 17 -29 21 -30 6 -118 -11 -127 -26 -3 -5 -15
-9 -28 -9 -12 0 -26 -3 -29 -6 -8 -9 -119 -54 -131 -54 -5 0 -39 -16 -77 -35
l-69 -35 -15 24 c-18 27 -78 175 -88 218 -5 20 -3 28 10 32 37 11 122 17 238
16 118 0 138 -1 223 -16 53 -9 71 10 72 77 0 83 -1 84 -217 83 -188 0 -347 -9
-364 -20 -30 -18 -60 178 -59 389 0 189 2 210 26 323 18 89 62 208 118 322 25
50 46 94 46 97 0 3 8 18 18 33 11 15 32 47 48 72 15 25 46 65 69 90 22 26 58
68 80 94 265 318 685 554 1103 620 48 8 103 19 122 25 19 6 36 11 38 11 2 0 3
-51 2 -112 -1 -62 -1 -123 -1 -135 1 -30 46 -44 89 -26 36 15 36 15 34 191 -2
90 -1 92 22 92 13 0 24 -6 23 -12 0 -7 1 -84 1 -170 2 -156 2 -158 27 -174 32
-21 81 -11 91 19 4 12 7 95 6 184 l-2 163 25 -2 c14 -1 26 -7 26 -13z"/>
<path d="M1660 3943 c-30 -13 -48 -40 -52 -81 -5 -54 22 -89 77 -102 70 -16
95 -12 125 20 24 26 28 37 23 68 -8 56 -48 91 -108 97 -28 2 -57 1 -65 -2z"/>
<path d="M3313 3927 c-43 -22 -55 -84 -27 -143 20 -42 51 -51 113 -35 60 15
92 53 89 104 -3 58 -37 87 -102 86 -28 -1 -61 -6 -73 -12z"/>
<path d="M1450 3568 c-25 -4 -58 -10 -75 -12 -47 -6 -165 -58 -197 -88 -16
-14 -32 -28 -37 -30 -13 -5 -121 -135 -121 -146 0 -5 -7 -15 -14 -22 -12 -9
-45 -88 -51 -120 -1 -3 -4 -18 -8 -35 -35 -156 11 -338 120 -475 135 -170 428
-245 619 -160 111 50 139 67 197 125 58 56 127 170 127 207 0 8 4 18 8 24 28
31 36 175 16 294 -14 86 -134 280 -193 314 -8 5 -25 18 -35 28 -11 10 -24 18
-29 18 -5 0 -21 8 -35 18 -15 11 -36 22 -47 25 -11 3 -38 12 -60 20 -52 19
-128 26 -185 15z m120 -185 c57 -21 79 -39 96 -80 54 -128 -47 -256 -201 -254
-60 0 -133 60 -155 125 -48 145 103 267 260 209z"/>
<path d="M3461 3549 c-104 -28 -162 -56 -189 -91 -7 -10 -17 -18 -22 -18 -12
0 -97 -90 -116 -121 -7 -13 -30 -58 -51 -99 l-37 -75 0 -135 c-1 -108 3 -146
18 -189 34 -98 110 -208 182 -261 55 -41 82 -57 114 -69 19 -7 44 -17 55 -21
72 -30 221 -31 315 -3 65 20 162 70 173 89 4 8 14 14 21 14 14 0 76 61 76 76
0 5 8 14 18 20 9 6 30 38 46 70 57 114 77 242 56 348 -7 34 -14 69 -15 78 -12
58 -86 178 -152 245 -55 56 -167 125 -228 142 -80 21 -185 21 -264 0z m209
-162 c95 -25 140 -149 87 -242 -43 -75 -106 -102 -229 -96 -87 4 -157 162
-112 256 14 30 65 74 104 88 18 7 114 3 150 -6z"/>
<path d="M2405 2755 c-65 -21 -155 -78 -155 -98 0 -6 -7 -15 -16 -22 -20 -14
-27 -130 -10 -183 20 -68 166 -202 220 -202 22 0 24 -14 21 -178 l-2 -154 -73
-41 c-40 -23 -97 -54 -126 -69 -52 -27 -54 -29 -54 -69 0 -32 6 -47 29 -70 16
-16 38 -29 49 -29 23 0 77 25 118 56 17 13 59 37 92 54 60 30 62 31 94 14 18
-9 60 -36 93 -59 91 -64 139 -74 191 -40 25 16 39 63 29 95 -4 13 -37 36 -88
61 -45 22 -89 47 -97 54 -9 8 -32 21 -52 29 l-36 15 0 158 0 158 50 25 c74 37
163 130 188 199 24 63 22 134 -6 186 -19 35 -95 95 -122 95 -10 0 -24 6 -30
12 -18 18 -254 20 -307 3z m277 -125 c23 -19 23 -50 1 -51 -10 0 -42 -4 -70
-8 -29 -4 -53 -4 -53 1 0 4 -10 4 -22 -1 -13 -4 -38 -4 -56 1 -48 13 -41 48
13 65 53 16 165 12 187 -7z"/>
<path d="M678 1506 c-8 -7 -33 -23 -55 -34 -22 -12 -73 -52 -112 -90 -56 -55
-71 -75 -71 -98 0 -37 9 -50 43 -63 63 -24 97 -1 140 93 35 77 42 122 20 135
-15 8 -15 10 -2 11 8 0 20 -5 27 -12 9 -9 12 -8 12 5 0 10 7 29 16 42 17 27 5
34 -18 11z"/>
</g>
</svg>
